<svg width="16" height="17" viewBox="0 0 16 17" fill="none" xmlns="http://www.w3.org/2000/svg">
<path d="M6.66667 2.5H2.66667C2.48985 2.5 2.32029 2.57024 2.19526 2.69526C2.07024 2.82029 2 2.98985 2 3.16667V7.16667C2 7.34347 2.07024 7.51307 2.19526 7.63807C2.32029 7.76307 2.48985 7.83333 2.66667 7.83333H6.66667C6.84347 7.83333 7.01307 7.76307 7.13807 7.63807C7.26307 7.51307 7.33333 7.34347 7.33333 7.16667V3.16667C7.33333 2.98985 7.26307 2.82029 7.13807 2.69526C7.01307 2.57024 6.84347 2.5 6.66667 2.5ZM13.3333 2.5H9.33333C9.15653 2.5 8.98693 2.57024 8.86193 2.69526C8.73693 2.82029 8.66667 2.98985 8.66667 3.16667V7.16667C8.66667 7.34347 8.73693 7.51307 8.86193 7.63807C8.98693 7.76307 9.15653 7.83333 9.33333 7.83333H13.3333C13.5101 7.83333 13.6797 7.76307 13.8047 7.63807C13.9297 7.51307 14 7.34347 14 7.16667V3.16667C14 2.98985 13.9297 2.82029 13.8047 2.69526C13.6797 2.57024 13.5101 2.5 13.3333 2.5ZM6.66667 9.16667H2.66667C2.48985 9.16667 2.32029 9.23693 2.19526 9.36193C2.07024 9.48693 2 9.65653 2 9.83333V13.8333C2 14.0101 2.07024 14.1797 2.19526 14.3047C2.32029 14.4297 2.48985 14.5 2.66667 14.5H6.66667C6.84347 14.5 7.01307 14.4297 7.13807 14.3047C7.26307 14.1797 7.33333 14.0101 7.33333 13.8333V9.83333C7.33333 9.65653 7.26307 9.48693 7.13807 9.36193C7.01307 9.23693 6.84347 9.16667 6.66667 9.16667Z" fill="black"/>
<path d="M10.6668 9.83337H12.0002V11.1667H13.3335V12.5H12.0002V13.8334H10.6668V12.5H9.3335V11.1667H10.6668V9.83337Z" fill="#FF0500"/>
</svg>
