<svg width="32" height="32" viewBox="0 0 32 32" fill="none" xmlns="http://www.w3.org/2000/svg">
<path d="M0.5 3.2442C0.5 1.60019 1.83273 0.267456 3.47674 0.267456H28.5233C30.1673 0.267456 31.5 1.60019 31.5 3.2442V27.2675H0.5V3.2442Z" fill="#6F8FC5"/>
<path d="M9.75641 20.2972C9.77284 20.7079 10.1191 21.0275 10.5297 21.011L17.2221 20.7434C17.6327 20.7269 17.9523 20.3807 17.9359 19.97C17.9195 19.5593 17.5733 19.2397 17.1626 19.2562L11.2138 19.4941L10.9759 13.5454C10.9595 13.1347 10.6132 12.8151 10.2026 12.8315C9.79189 12.848 9.47229 13.1942 9.48872 13.6049L9.75641 20.2972ZM23.2436 7.23771C23.2272 6.82704 22.8809 6.50744 22.4703 6.52386L15.7779 6.79156C15.3673 6.80798 15.0477 7.15422 15.0641 7.56489C15.0805 7.97557 15.4267 8.29517 15.8374 8.27874L21.7862 8.04079L22.0241 13.9895C22.0405 14.4002 22.3868 14.7198 22.7974 14.7034C23.2081 14.6869 23.5277 14.3407 23.5113 13.93L23.2436 7.23771ZM11.0468 20.7722L23.0468 7.77222L21.9532 6.76269L9.95317 19.7627L11.0468 20.7722Z" fill="white"/>
<rect y="25.0811" width="32" height="6.91892" rx="3.45946" fill="#0647B4"/>
</svg>
