<svg width="64" height="22" viewBox="0 0 64 22" fill="none" xmlns="http://www.w3.org/2000/svg">
<g clip-path="url(#clip0_160_1235)">
<path d="M49.416 11.584C48.8173 12.1827 47.8468 12.1827 47.248 11.584C46.6493 10.9853 46.6493 10.0147 47.248 9.41602C47.8468 8.81728 48.8173 8.81728 49.416 9.41602C50.0147 10.0147 50.0147 10.9853 49.416 11.584ZM16.752 9.41602C16.1532 8.81728 15.1827 8.81728 14.584 9.41602C13.9853 10.0147 13.9853 10.9853 14.584 11.584C15.1827 12.1827 16.1532 12.1827 16.752 11.584C17.3507 10.9853 17.3507 10.0147 16.752 9.41602ZM19.2453 11.2589C19.4302 11.4438 19.6856 11.5584 19.9678 11.558C20.5323 11.558 20.9897 11.1007 20.9897 10.5361C20.9897 9.97184 20.5322 9.51439 19.9679 9.51439C19.4033 9.51439 18.946 9.9717 18.946 10.5363C18.9456 10.8184 19.0602 11.0739 19.2453 11.2589ZM23.1476 11.2589C23.3325 11.4438 23.588 11.5584 23.8701 11.558C24.4347 11.558 24.892 11.1007 24.892 10.5361C24.892 9.97184 24.4346 9.51439 23.8703 9.51439C23.3057 9.51439 22.8484 9.9717 22.8484 10.5363C22.848 10.8184 22.9626 11.0739 23.1476 11.2589ZM39.6602 11.2946C39.8452 11.4797 40.1002 11.5939 40.3828 11.5939C40.9474 11.5939 41.4048 11.1364 41.4047 10.572C41.4047 10.0077 40.9472 9.55024 40.383 9.55024C39.8185 9.5501 39.3611 10.0075 39.3611 10.5721C39.3606 10.8543 39.4753 11.1097 39.6602 11.2946ZM43.5989 11.2588C43.7838 11.4437 44.0389 11.5579 44.3214 11.5579C44.8859 11.558 45.3433 11.1006 45.3432 10.5361C45.3433 9.9717 44.8859 9.51425 44.3214 9.51439C43.757 9.51425 43.2995 9.9717 43.2997 10.5361C43.2993 10.8183 43.4139 11.0738 43.5989 11.2588ZM35.7287 9.48292L34.3468 9.4808L30.7698 5.01289L29.215 5.01205L31.3592 9.48856L27.7441 9.49604L26.5033 8.25525L25.8494 8.2424L26.5928 10.6236L25.904 12.9313L26.5037 12.947L27.7197 11.7311L31.3632 11.7435L29.2151 16.2122L30.7698 16.2121L34.3287 11.7433L35.7287 11.7435C36.3673 11.7435 37.7342 11.2522 37.7342 10.6136C37.7344 9.97523 36.3673 9.48292 35.7287 9.48292Z" fill="white"/>
</g>
<defs>
<clipPath id="clip0_160_1235">
<rect width="64" height="21" fill="white" transform="translate(0 0.5)"/>
</clipPath>
</defs>
</svg>
