<svg width="30" height="30" viewBox="0 0 30 30" fill="none" xmlns="http://www.w3.org/2000/svg">
<path d="M9.84352 22.0313C11.3435 22.0313 12.7498 21.5625 13.8748 20.7422C14.2263 20.5078 14.2732 20.0156 13.992 19.711C12.867 18.4688 12.1873 16.8047 12.1873 15C12.1873 13.1953 12.867 11.5313 13.992 10.2891C14.2732 9.9844 14.2263 9.49221 13.8748 9.25783C12.6326 8.36721 11.0857 7.89846 9.42165 7.99221C5.90603 8.20315 3.04665 11.0391 2.81228 14.5547C2.5779 18.6328 5.81227 22.0313 9.84352 22.0313Z" fill="white"/>
<path d="M27.1636 14.5547C26.9527 11.0391 24.0699 8.20313 20.5543 7.9922C18.8902 7.89845 17.3433 8.39063 16.1011 9.25782C15.7496 9.4922 15.7027 9.98438 15.984 10.2891C17.1324 11.5313 17.8121 13.1953 17.8121 15C17.8121 16.8047 17.1324 18.4688 16.0074 19.7109C15.7262 20.0156 15.773 20.5078 16.1246 20.7422C17.2496 21.5625 18.6558 22.0313 20.1558 22.0313C24.1871 22.0313 27.4215 18.6328 27.1636 14.5547Z" fill="white"/>
</svg>
