<svg width="64" height="22" viewBox="0 0 64 22" fill="none" xmlns="http://www.w3.org/2000/svg">
<g clip-path="url(#clip0_160_1242)">
<path d="M9.63942 9.49068C9.0839 8.93517 8.18345 8.93517 7.62794 9.49068C7.07242 10.0462 7.07242 10.9467 7.62794 11.5022C8.18345 12.0577 9.08391 12.0577 9.63942 11.5022C10.1949 10.9467 10.1949 10.0462 9.63942 9.49068ZM11.9528 11.2006C12.1243 11.3721 12.3613 11.4785 12.6231 11.4781C13.1469 11.4781 13.5712 11.0538 13.5712 10.53C13.5712 10.0064 13.1468 9.58196 12.6233 9.58196C12.0994 9.58196 11.6751 10.0063 11.6751 10.5301C11.6747 10.7919 11.7811 11.0289 11.9528 11.2006ZM15.5734 11.2006C15.745 11.3721 15.982 11.4785 16.2438 11.4781C16.7676 11.4781 17.1919 11.0538 17.1919 10.5299C17.1919 10.0064 16.7675 9.58196 16.2439 9.58196C15.7201 9.58196 15.2958 10.0063 15.2958 10.5301C15.2954 10.7919 15.4017 11.0289 15.5734 11.2006ZM30.8941 11.2337C31.0658 11.4054 31.3024 11.5113 31.5646 11.5113C32.0884 11.5113 32.5128 11.0869 32.5127 10.5632C32.5127 10.0396 32.0883 9.61522 31.5647 9.61522C31.041 9.61509 30.6166 10.0395 30.6166 10.5633C30.6162 10.8251 30.7225 11.0622 30.8941 11.2337ZM34.5485 11.2004C34.7201 11.372 34.9567 11.4779 35.2189 11.4779C35.7426 11.4781 36.167 11.0536 36.1669 10.53C36.167 10.0063 35.7426 9.58183 35.2189 9.58196C34.6952 9.58183 34.2708 10.0063 34.2709 10.5299C34.2705 10.7917 34.3769 11.0288 34.5485 11.2004ZM27.2464 9.55276L25.9643 9.55079L22.6454 5.40538L21.2028 5.4046L23.1923 9.558L19.8381 9.56494L18.6869 8.4137L18.0802 8.40178L18.7699 10.6111L18.1309 12.7523L18.6873 12.7668L19.8155 11.6386L23.196 11.6501L21.203 15.7963L22.6454 15.7962L25.9475 11.65L27.2464 11.6501C27.8389 11.6501 29.1072 11.1943 29.1072 10.6018C29.1073 10.0095 27.8389 9.55276 27.2464 9.55276Z" fill="black"/>
<path d="M39.0963 12.4558C40.1786 13.538 41.9328 13.538 43.015 12.4558C44.0972 11.3735 44.0972 9.61932 43.015 8.53709C41.9328 7.45486 40.1786 7.45487 39.0963 8.53709C38.0141 9.61932 38.0141 11.3735 39.0963 12.4558Z" fill="#FF0000"/>
<path d="M55.9943 9.49073C55.4388 8.93522 54.5384 8.93522 53.9829 9.49073C53.4273 10.0462 53.4273 10.9467 53.9829 11.5022C54.5384 12.0577 55.4388 12.0577 55.9943 11.5022C56.5498 10.9467 56.5498 10.0462 55.9943 9.49073Z" fill="black"/>
<path d="M50.9992 11.4781C51.2609 11.4785 51.498 11.3722 51.6695 11.2006C51.8412 11.0289 51.9475 10.7919 51.9471 10.5301C51.9471 10.0063 51.5228 9.58201 50.999 9.58201C50.4755 9.58201 50.051 10.0064 50.051 10.53C50.051 11.0538 50.4753 11.4781 50.9992 11.4781Z" fill="black"/>
<path d="M47.3785 11.4781C47.6403 11.4785 47.8773 11.3722 48.0488 11.2006C48.2205 11.0289 48.3269 10.7919 48.3265 10.5301C48.3265 10.0063 47.9022 9.58201 47.3784 9.58201C46.8548 9.58201 46.4304 10.0064 46.4304 10.53C46.4304 11.0538 46.8547 11.4781 47.3785 11.4781Z" fill="black"/>
</g>
<defs>
<clipPath id="clip0_160_1242">
<rect width="64" height="21" fill="white" transform="translate(0 0.5)"/>
</clipPath>
</defs>
</svg>
