<svg width="64" height="22" viewBox="0 0 64 22" fill="none" xmlns="http://www.w3.org/2000/svg">
<g clip-path="url(#clip0_160_1251)">
<path d="M2.55054 9.46354C1.98028 8.89327 1.05591 8.89327 0.48565 9.46354C-0.0846167 10.0338 -0.084617 10.9582 0.485649 11.5284C1.05591 12.0987 1.98028 12.0987 2.55054 11.5284C3.12081 10.9582 3.12081 10.0338 2.55054 9.46354ZM4.9253 11.2188C5.10141 11.3949 5.34474 11.5041 5.61347 11.5037C6.1512 11.5037 6.58676 11.0681 6.58676 10.5304C6.58676 9.99294 6.15107 9.55724 5.6136 9.55724C5.07587 9.55724 4.64031 9.9928 4.64031 10.5305C4.6399 10.7993 4.74906 11.0426 4.9253 11.2188ZM8.64211 11.2188C8.81822 11.3949 9.06155 11.5041 9.33028 11.5037C9.86801 11.5037 10.3036 11.0681 10.3036 10.5304C10.3036 9.99294 9.86788 9.55724 9.33041 9.55724C8.79268 9.55724 8.35712 9.9928 8.35712 10.5305C8.35671 10.7993 8.46587 11.0426 8.64211 11.2188ZM24.3696 11.2528C24.5458 11.4291 24.7887 11.5378 25.0579 11.5378C25.5956 11.5378 26.0313 11.1021 26.0312 10.5645C26.0312 10.0271 25.5955 9.59139 25.058 9.59139C24.5204 9.59125 24.0847 10.0269 24.0847 10.5647C24.0843 10.8334 24.1935 11.0767 24.3696 11.2528ZM28.1211 11.2187C28.2972 11.3948 28.5401 11.5036 28.8092 11.5036C29.3468 11.5037 29.7825 11.068 29.7824 10.5304C29.7825 9.9928 29.3468 9.5571 28.8092 9.55724C28.2716 9.5571 27.8359 9.9928 27.8361 10.5304C27.8357 10.7991 27.9448 11.0425 28.1211 11.2187ZM20.6251 9.52726L19.3089 9.52524L15.9019 5.26976L14.421 5.26896L16.4633 9.53264L13.0201 9.53976L11.8383 8.35796L11.2154 8.34573L11.9235 10.6137L11.2675 12.8117L11.8387 12.8267L12.9968 11.6685L16.4671 11.6803L14.4211 15.9366L15.9019 15.9365L19.2916 11.6802L20.6251 11.6803C21.2333 11.6803 22.5352 11.2124 22.5352 10.6042C22.5354 9.99616 21.2333 9.52726 20.6251 9.52726Z" fill="black"/>
<path d="M32.1971 12.5073C33.3081 13.6183 35.1089 13.6183 36.2199 12.5073C37.3308 11.3964 37.3308 9.59559 36.2199 8.48462C35.1089 7.37366 33.3081 7.37366 32.1971 8.48463C31.0862 9.59559 31.0862 11.3964 32.1971 12.5073Z" fill="#FF0000"/>
<path d="M46.7123 12.5073C47.8232 13.6183 49.624 13.6183 50.735 12.5073C51.846 11.3964 51.846 9.59559 50.735 8.48462C49.624 7.37366 47.8232 7.37366 46.7123 8.48463C45.6013 9.59559 45.6013 11.3964 46.7123 12.5073Z" fill="#FF0000"/>
<path d="M43.3243 11.5038C43.593 11.5042 43.8363 11.395 44.0124 11.2189C44.1887 11.0427 44.2978 10.7993 44.2974 10.5306C44.2974 9.99288 43.8619 9.55732 43.3241 9.55732C42.7867 9.55732 42.351 9.99302 42.351 10.5305C42.351 11.0682 42.7865 11.5038 43.3243 11.5038Z" fill="black"/>
<path d="M39.6074 11.5038C39.8762 11.5042 40.1195 11.395 40.2956 11.2189C40.4719 11.0427 40.581 10.7993 40.5806 10.5306C40.5806 9.99288 40.145 9.55732 39.6073 9.55732C39.0699 9.55732 38.6342 9.99302 38.6342 10.5305C38.6342 11.0682 39.0697 11.5038 39.6074 11.5038Z" fill="black"/>
<path d="M62.9677 9.46359C62.3974 8.89332 61.4731 8.89332 60.9028 9.46359C60.3325 10.0339 60.3325 10.9582 60.9028 11.5285C61.4731 12.0987 62.3974 12.0987 62.9677 11.5285C63.538 10.9582 63.538 10.0339 62.9677 9.46359Z" fill="black"/>
<path d="M57.8399 11.5037C58.1086 11.5041 58.3519 11.395 58.5281 11.2189C58.7043 11.0426 58.8135 10.7993 58.813 10.5306C58.813 9.99285 58.3775 9.55729 57.8398 9.55729C57.3023 9.55729 56.8666 9.99298 56.8666 10.5304C56.8666 11.0682 57.3022 11.5037 57.8399 11.5037Z" fill="black"/>
<path d="M54.1231 11.5037C54.3918 11.5041 54.6351 11.395 54.8112 11.2189C54.9875 11.0426 55.0966 10.7993 55.0962 10.5306C55.0962 9.99285 54.6607 9.55729 54.1229 9.55729C53.5855 9.55729 53.1498 9.99298 53.1498 10.5304C53.1498 11.0682 53.5853 11.5037 54.1231 11.5037Z" fill="black"/>
</g>
<defs>
<clipPath id="clip0_160_1251">
<rect width="64" height="21" fill="white" transform="translate(0 0.5)"/>
</clipPath>
</defs>
</svg>
