<svg width="30" height="30" viewBox="0 0 30 30" fill="none" xmlns="http://www.w3.org/2000/svg">
<g clip-path="url(#clip0_21_5635)">
<path d="M12.012 10.5358L10.4873 19.483H12.9257L14.4516 10.5358H12.012Z" fill="white"/>
<path d="M8.44319 10.5458L6.05493 16.6476L5.8003 15.7262C5.32929 14.6162 3.99217 13.0219 2.42236 12.0172L4.60617 19.4786L7.18634 19.4742L11.0265 10.5439L8.44319 10.5458Z" fill="white"/>
<path d="M4.87436 11.1862C4.73262 10.6412 4.32182 10.4787 3.81193 10.4593H0.0313584L0 10.6374C2.94205 11.3511 4.88878 13.0708 5.69658 15.1386L4.87436 11.1862Z" fill="white"/>
<path d="M19.3938 12.2511C20.1915 12.2386 20.7698 12.4129 21.2188 12.5935L21.4389 12.697L21.7688 10.7578C21.2859 10.5766 20.5289 10.3821 19.5844 10.3821C17.1748 10.3821 15.4765 11.5957 15.4633 13.3349C15.4476 14.6199 16.6731 15.3374 17.5988 15.7658C18.549 16.2048 18.8676 16.4839 18.8632 16.8758C18.8556 17.4748 18.1055 17.7495 17.405 17.7495C16.4285 17.7495 15.9098 17.6147 15.1089 17.281L14.7947 17.138L14.4517 19.1406C15.0224 19.3908 16.0754 19.6059 17.1686 19.6172C19.7318 19.6172 21.3976 18.4181 21.4151 16.5598C21.4258 15.5431 20.7754 14.7673 19.3662 14.1307C18.5132 13.7155 17.9914 13.4396 17.9964 13.0206C17.9964 12.6487 18.4392 12.2511 19.3938 12.2511Z" fill="white"/>
<path d="M28.0268 10.5458H26.1428C25.5577 10.5458 25.1224 10.7051 24.8653 11.2884L21.2446 19.488H23.8054C23.8054 19.488 24.2231 18.3854 24.3178 18.144C24.5981 18.144 27.0861 18.1478 27.4404 18.1478C27.5132 18.4601 27.7377 19.488 27.7377 19.488H29.9999L28.0268 10.5458ZM25.0196 16.3127C25.2203 15.799 25.991 13.8121 25.991 13.8121C25.9779 13.8366 26.1899 13.2947 26.3159 12.9579L26.4802 13.7293C26.4802 13.7293 26.9475 15.8655 27.0453 16.3127H25.0196Z" fill="white"/>
</g>
<defs>
<clipPath id="clip0_21_5635">
<rect width="30" height="30" fill="white"/>
</clipPath>
</defs>
</svg>
