<svg width="21" height="20" viewBox="0 0 21 20" fill="none" xmlns="http://www.w3.org/2000/svg">
<path d="M16.4904 4.09167C15.7263 3.32009 14.8162 2.70831 13.8133 2.29197C12.8104 1.87563 11.7346 1.66307 10.6487 1.66667C6.09873 1.66667 2.3904 5.375 2.3904 9.925C2.3904 11.3833 2.77373 12.8 3.4904 14.05L2.32373 18.3333L6.69873 17.1833C7.90706 17.8417 9.2654 18.1917 10.6487 18.1917C15.1987 18.1917 18.9071 14.4833 18.9071 9.93333C18.9071 7.725 18.0487 5.65 16.4904 4.09167ZM10.6487 16.7917C9.4154 16.7917 8.20706 16.4583 7.14873 15.8333L6.89873 15.6833L4.29873 16.3667L4.9904 13.8333L4.82373 13.575C4.13835 12.4809 3.7745 11.2161 3.77373 9.925C3.77373 6.14167 6.85706 3.05833 10.6404 3.05833C12.4737 3.05833 14.1987 3.775 15.4904 5.075C16.1301 5.71155 16.637 6.46879 16.9818 7.30277C17.3265 8.13676 17.5022 9.03091 17.4987 9.93333C17.5154 13.7167 14.4321 16.7917 10.6487 16.7917ZM14.4154 11.6583C14.2071 11.5583 13.1904 11.0583 13.0071 10.9833C12.8154 10.9167 12.6821 10.8833 12.5404 11.0833C12.3987 11.2917 12.0071 11.7583 11.8904 11.8917C11.7737 12.0333 11.6487 12.05 11.4404 11.9417C11.2321 11.8417 10.5654 11.6167 9.78206 10.9167C9.1654 10.3667 8.75706 9.69167 8.63206 9.48333C8.5154 9.275 8.6154 9.16667 8.72373 9.05833C8.8154 8.96667 8.93206 8.81667 9.03206 8.7C9.13206 8.58333 9.17373 8.49167 9.2404 8.35833C9.30706 8.21667 9.27373 8.1 9.22373 8C9.17373 7.9 8.75706 6.88333 8.5904 6.46667C8.42373 6.06667 8.24873 6.11667 8.12373 6.10833H7.72373C7.58206 6.10833 7.3654 6.15833 7.17373 6.36667C6.9904 6.575 6.45706 7.075 6.45706 8.09167C6.45706 9.10833 7.19873 10.0917 7.29873 10.225C7.39873 10.3667 8.75706 12.45 10.8237 13.3417C11.3154 13.5583 11.6987 13.6833 11.9987 13.775C12.4904 13.9333 12.9404 13.9083 13.2987 13.8583C13.6987 13.8 14.5237 13.3583 14.6904 12.875C14.8654 12.3917 14.8654 11.9833 14.8071 11.8917C14.7487 11.8 14.6237 11.7583 14.4154 11.6583Z" fill="white"/>
</svg>
