<svg width="108" height="109" viewBox="0 0 108 109" fill="none" xmlns="http://www.w3.org/2000/svg">
<path d="M39.3879 76.2122V78.1061C39.3879 78.7336 38.8791 79.2424 38.2516 79.2424C37.624 79.2424 37.1152 78.7336 37.1152 78.1061V76.2122H39.3879ZM54.5489 76.2122V78.1061C54.5489 78.7336 54.0401 79.2424 53.4126 79.2424C52.7851 79.2424 52.2763 78.7336 52.2763 78.1061V76.2122H54.5489Z" fill="black"/>
<path d="M59.0894 72.4224C59.0894 74.5144 57.3935 76.2103 55.3015 76.2103H36.3621C34.2701 76.2103 32.5742 74.5144 32.5742 72.4224V47.8024C32.5742 45.7104 34.2701 44.0145 36.3621 44.0145H55.3015C57.3935 44.0145 59.0894 45.7104 59.0894 47.8024V72.4224Z" fill="#0647B4"/>
<path d="M51.5135 31.894C51.5135 32.5216 51.0047 33.0303 50.3771 33.0303H41.2862C40.6586 33.0303 40.1499 32.5215 40.1499 31.894C40.1499 31.2663 40.6587 30.7576 41.2862 30.7576H50.3771C51.0047 30.7576 51.5135 31.2663 51.5135 31.894Z" fill="#E9F1FF"/>
<path d="M64.396 69.0656V66.2218C64.396 65.5673 64.9266 65.0366 65.5812 65.0366H68.425C68.7685 65.0366 69.0769 65.1836 69.2934 65.4171C69.3038 65.4269 69.3147 65.4355 69.3249 65.4456L75.3901 71.5108C75.8828 72.0035 75.8828 72.8023 75.3901 73.295L72.6544 76.0308C72.1617 76.5234 71.3629 76.5234 70.8702 76.0308L64.805 69.9655C64.7948 69.9554 64.7861 69.9443 64.7765 69.934C64.543 69.7175 64.396 69.4092 64.396 69.0656Z" fill="#E9F1FF"/>
<path d="M46.5742 70.529V49.6957C46.5742 49.2774 46.2343 48.9381 45.8151 48.9381C45.396 48.9381 45.0561 49.2773 45.0561 49.6957V70.529C45.0561 70.9474 45.396 71.2866 45.8151 71.2866C46.2343 71.2866 46.5742 70.9474 46.5742 70.529ZM37.46 49.6957V70.529C37.46 70.9474 37.7999 71.2866 38.219 71.2866C38.6383 71.2866 38.9781 70.9475 38.9781 70.529V49.6957C38.9781 49.2774 38.6382 48.9381 38.219 48.9381C37.7998 48.9381 37.46 49.2774 37.46 49.6957ZM54.1701 70.529V49.6957C54.1701 49.2774 53.8302 48.9381 53.411 48.9381C52.9918 48.9381 52.652 49.2773 52.652 49.6957V70.529C52.652 70.9474 52.9919 71.2866 53.411 71.2866C53.8302 71.2866 54.1701 70.9474 54.1701 70.529ZM41.2579 49.6957V70.529C41.2579 70.9474 41.5979 71.2866 42.017 71.2866C42.4362 71.2866 42.7761 70.9475 42.7761 70.529V49.6957C42.7761 49.2774 42.4361 48.9381 42.017 48.9381C41.5979 48.9381 41.2579 49.2774 41.2579 49.6957ZM49.613 66.1618C49.1937 66.1618 48.8539 66.501 48.8539 66.9195V70.529C48.8539 70.9474 49.1938 71.2866 49.613 71.2866C50.0321 71.2866 50.3721 70.9475 50.3721 70.529V66.9195C50.3721 66.5011 50.0322 66.1618 49.613 66.1618ZM49.6131 48.9381C49.1937 48.9381 48.854 49.2773 48.8539 49.6956C48.8533 54.4221 48.8533 59.1486 48.8539 63.8751C48.854 64.2937 49.1939 64.6327 49.6131 64.6327C50.0323 64.6327 50.3722 64.2936 50.3721 63.8751C50.3715 59.1667 50.3715 54.4319 50.3721 49.6958C50.3722 49.2775 50.0323 48.9382 49.6131 48.9381Z" fill="black"/>
<path d="M44.6688 46.2871C44.6688 45.8687 44.3288 45.5295 43.9097 45.5295H36.3257C35.0699 45.5295 34.0483 46.549 34.0483 47.8022V55.3662C34.0483 55.7846 34.3883 56.1238 34.8074 56.1238C35.2266 56.1238 35.5665 55.7847 35.5665 55.3662V47.8022C35.5665 47.3846 35.907 47.0446 36.3256 47.0446H43.9096C44.3289 47.0447 44.6688 46.7055 44.6688 46.2871Z" fill="black"/>
<path d="M75.9699 70.9753L69.8924 64.9101C69.8799 64.8976 69.8671 64.8855 69.8538 64.8738C69.6721 64.6861 69.4545 64.5368 69.2141 64.4347C68.9736 64.3325 68.7151 64.2797 68.4538 64.2792H65.6041C64.64 64.2792 63.8395 64.9832 63.6861 65.9026C62.9776 65.3974 62.4109 64.7364 62.0515 63.9761C62.8949 63.5312 63.4718 62.6477 63.4718 61.6312V57.8443C63.4718 56.3822 62.2799 55.1928 60.8148 55.1928H59.8582V47.8021C59.8582 45.2957 57.8149 43.2567 55.3035 43.2567H50.9384V33.7007C51.7076 33.4589 52.2671 32.7405 52.2671 31.8939C52.2672 30.8496 51.4158 30 50.3694 30H41.26C40.2135 30 39.3622 30.8496 39.3622 31.8939C39.3622 32.7404 39.9217 33.4588 40.6908 33.7006V43.2568H36.3257C33.8142 43.2568 31.771 45.2959 31.771 47.8022V49.2777C31.771 49.6961 32.1109 50.0354 32.5301 50.0354C32.9492 50.0354 33.2892 49.6962 33.2892 49.2777V47.8022C33.2892 46.1313 34.6514 44.772 36.3257 44.772H55.3036C56.9779 44.772 58.3401 46.1313 58.3401 47.8022V72.4224C58.3401 74.0933 56.9779 75.4526 55.3036 75.4526H36.3257C34.6514 75.4526 33.2892 74.0933 33.2892 72.4224V51.8839C33.2892 51.4655 32.9492 51.1263 32.5301 51.1263C32.1109 51.1263 31.771 51.4654 31.771 51.8839V72.4224C31.771 74.9271 33.8116 76.965 36.3209 76.9677V78.1061C36.3209 79.1503 37.1723 80 38.2187 80C39.265 80 40.1164 79.1503 40.1164 78.1061V76.9679H51.5127V78.1061C51.5127 79.1503 52.3641 80 53.4104 80C54.4568 80 55.3082 79.1503 55.3082 78.1061V76.9677C57.8174 76.965 59.8581 74.9271 59.8581 72.4224V64.2827H60.5309C61.108 65.7203 62.2273 66.9151 63.6574 67.6553V69.0657C63.6574 69.5898 63.8733 70.0959 64.2513 70.4608C64.2635 70.4745 64.2763 70.4882 64.2896 70.5014L66.9779 73.184C67.2744 73.4799 67.7552 73.4799 68.0514 73.184C68.1218 73.1137 68.1778 73.0302 68.2159 72.9383C68.2541 72.8464 68.2737 72.7479 68.2737 72.6483C68.2737 72.5488 68.2541 72.4503 68.2159 72.3584C68.1778 72.2664 68.1218 72.183 68.0514 72.1127L65.3754 69.4423C65.356 69.4199 65.3355 69.3985 65.3139 69.3783C65.2622 69.3308 65.1758 69.2267 65.1758 69.0657V68.2332C65.7803 68.3887 66.402 68.4674 67.0262 68.4674C67.4454 68.4674 67.7853 68.1282 67.7853 67.7098C67.7853 67.2913 67.4453 66.9521 67.0262 66.9521C66.3766 66.9521 65.7533 66.8478 65.1758 66.6568V66.2218C65.176 66.1083 65.2213 65.9996 65.3016 65.9195C65.3819 65.8394 65.4907 65.7944 65.6041 65.7943H68.4538C68.6152 65.7943 68.7194 65.8807 68.7672 65.9321C68.7785 65.9441 68.7901 65.956 68.8021 65.9673C68.8066 65.9716 68.8198 65.9834 68.8299 65.9923L74.8966 72.0466C74.9436 72.0933 74.9808 72.1488 75.0062 72.21C75.0316 72.2712 75.0446 72.3368 75.0444 72.403C75.0446 72.4693 75.0316 72.5349 75.0063 72.5961C74.9809 72.6573 74.9436 72.7128 74.8966 72.7595L72.1554 75.4953C72.0604 75.5897 71.932 75.6427 71.7981 75.6427C71.6643 75.6427 71.5358 75.5897 71.4409 75.4953L69.922 73.9794C69.7795 73.8373 69.5865 73.7575 69.3853 73.7575C69.184 73.7575 68.991 73.8373 68.8485 73.9794C68.7781 74.0497 68.7221 74.1331 68.684 74.2251C68.6458 74.317 68.6262 74.4155 68.6262 74.515C68.6262 74.6146 68.6458 74.7131 68.684 74.805C68.7221 74.8969 68.7781 74.9804 68.8485 75.0507L70.3675 76.5666C70.7619 76.9604 71.2801 77.1571 71.798 77.1571C72.3162 77.1571 72.8344 76.9604 73.2288 76.5666L75.97 73.831C76.1584 73.6441 76.3078 73.4216 76.4096 73.1765C76.5113 72.9314 76.5634 72.6685 76.5627 72.4031C76.5633 72.1377 76.5113 71.8749 76.4095 71.6298C76.3078 71.3847 76.1583 71.1622 75.9699 70.9753ZM42.2091 33.7879H45.2931C45.7123 33.7879 46.0521 33.4487 46.0521 33.0303C46.0521 32.6118 45.7122 32.2727 45.2931 32.2727H41.26C41.0506 32.2727 40.8804 32.1027 40.8804 31.8938C40.8804 31.685 41.0506 31.515 41.26 31.515H50.3694C50.5788 31.515 50.749 31.685 50.749 31.8938C50.749 32.1027 50.5788 32.2727 50.3694 32.2727H47.8581C47.4389 32.2727 47.099 32.6118 47.099 33.0303C47.099 33.4487 47.439 33.7879 47.8581 33.7879H49.4203V43.2568H42.2092V33.7879H42.2091ZM38.5982 78.1061C38.596 78.2052 38.555 78.2996 38.4841 78.3689C38.4131 78.4383 38.3179 78.4771 38.2187 78.4771C38.1194 78.4771 38.0242 78.4383 37.9532 78.3689C37.8823 78.2996 37.8413 78.2052 37.8391 78.1061V76.9679H38.5981L38.5982 78.1061ZM53.4106 78.4849C53.3101 78.4848 53.2137 78.4449 53.1425 78.3739C53.0714 78.3029 53.0313 78.2066 53.0311 78.1061V76.9679H53.7901V78.1061C53.7899 78.2066 53.7499 78.3029 53.6787 78.3739C53.6076 78.4449 53.5112 78.4848 53.4106 78.4849ZM59.8583 62.7676V56.7081H60.8149C61.4429 56.7081 61.9536 57.2179 61.9536 57.8444V61.6312C61.9536 61.9369 61.8314 62.2143 61.6341 62.4187C61.6237 62.2979 61.6182 62.1767 61.6177 62.0555C61.6177 61.6371 61.2777 61.2979 60.8586 61.2979C60.4395 61.2979 60.0995 61.637 60.0995 62.0555C60.0995 62.2962 60.1151 62.5336 60.1433 62.7676H59.8583Z" fill="black"/>
<path d="M32.0225 99V91.524L30.5945 91.908V91.32L32.2865 90.6H32.8745V99H32.0225ZM37.3763 99L39.3923 95.976L37.3763 92.952H38.2763L39.9803 95.532L41.6723 92.952H42.5723L40.5563 95.976L42.5723 99H41.6723L39.9803 96.408L38.2883 99H37.3763ZM46.9637 99V98.412C47.5477 97.948 48.0997 97.484 48.6197 97.02C49.1397 96.548 49.5997 96.08 49.9997 95.616C50.4077 95.152 50.7277 94.7 50.9597 94.26C51.1917 93.812 51.3077 93.376 51.3077 92.952C51.3077 92.648 51.2517 92.36 51.1397 92.088C51.0357 91.816 50.8637 91.596 50.6237 91.428C50.3837 91.26 50.0517 91.176 49.6277 91.176C49.2277 91.176 48.8957 91.264 48.6317 91.44C48.3677 91.616 48.1717 91.848 48.0437 92.136C47.9157 92.416 47.8517 92.724 47.8517 93.06H47.0357C47.0357 92.524 47.1477 92.064 47.3717 91.68C47.5957 91.288 47.8997 90.988 48.2837 90.78C48.6757 90.564 49.1277 90.456 49.6397 90.456C50.1117 90.456 50.5357 90.544 50.9117 90.72C51.2877 90.896 51.5877 91.168 51.8117 91.536C52.0357 91.904 52.1477 92.372 52.1477 92.94C52.1477 93.34 52.0597 93.744 51.8837 94.152C51.7157 94.552 51.4917 94.944 51.2117 95.328C50.9317 95.712 50.6197 96.084 50.2757 96.444C49.9317 96.796 49.5797 97.132 49.2197 97.452C48.8677 97.764 48.5397 98.044 48.2357 98.292H52.4597V99H46.9637ZM56.7932 99.144C56.2332 99.144 55.7452 99.044 55.3292 98.844C54.9132 98.636 54.5812 98.356 54.3332 98.004C54.0932 97.644 53.9372 97.244 53.8652 96.804H54.6932C54.7972 97.284 55.0332 97.676 55.4012 97.98C55.7692 98.276 56.2372 98.424 56.8052 98.424C57.2372 98.424 57.6052 98.324 57.9092 98.124C58.2132 97.924 58.4452 97.656 58.6052 97.32C58.7732 96.976 58.8572 96.6 58.8572 96.192C58.8572 95.76 58.7732 95.376 58.6052 95.04C58.4372 94.704 58.2012 94.444 57.8972 94.26C57.6012 94.068 57.2532 93.972 56.8532 93.972C56.3652 93.972 55.9492 94.08 55.6052 94.296C55.2612 94.504 55.0012 94.78 54.8252 95.124H54.0212L54.7292 90.6H59.0852V91.332H55.3772L54.8852 94.104C55.0852 93.856 55.3572 93.652 55.7012 93.492C56.0532 93.332 56.4572 93.252 56.9132 93.252C57.3132 93.252 57.6812 93.324 58.0172 93.468C58.3532 93.612 58.6412 93.816 58.8812 94.08C59.1292 94.344 59.3212 94.652 59.4572 95.004C59.5932 95.356 59.6612 95.748 59.6612 96.18C59.6612 96.572 59.5972 96.948 59.4692 97.308C59.3492 97.66 59.1652 97.976 58.9172 98.256C58.6772 98.528 58.3772 98.744 58.0172 98.904C57.6652 99.064 57.2572 99.144 56.7932 99.144ZM68.2141 99L65.2501 95.688L67.9621 92.952H69.0061L65.9941 95.964L66.0061 95.4L69.2941 99H68.2141ZM64.5541 99V90.36H65.3941V99H64.5541ZM72.7184 101.784C72.1824 101.784 71.7064 101.712 71.2904 101.568C70.8824 101.424 70.5584 101.208 70.3184 100.92C70.0864 100.632 69.9704 100.276 69.9704 99.852C69.9704 99.684 69.9984 99.5 70.0544 99.3C70.1184 99.108 70.2384 98.912 70.4144 98.712C70.5904 98.512 70.8384 98.332 71.1584 98.172L71.8424 98.472C71.4184 98.672 71.1424 98.888 71.0144 99.12C70.8864 99.36 70.8224 99.576 70.8224 99.768C70.8224 100.056 70.9024 100.296 71.0624 100.488C71.2304 100.68 71.4544 100.824 71.7344 100.92C72.0224 101.016 72.3504 101.064 72.7184 101.064C73.0864 101.064 73.4024 101.012 73.6664 100.908C73.9384 100.804 74.1464 100.652 74.2904 100.452C74.4344 100.26 74.5064 100.036 74.5064 99.78C74.5064 99.484 74.3904 99.232 74.1584 99.024C73.9344 98.824 73.5144 98.708 72.8984 98.676C72.4104 98.644 72.0064 98.604 71.6864 98.556C71.3744 98.5 71.1144 98.436 70.9064 98.364C70.7064 98.284 70.5384 98.2 70.4024 98.112C70.2744 98.024 70.1504 97.928 70.0304 97.824V97.548L71.1824 96.456L71.9504 96.732L70.8224 97.74L70.8944 97.416C70.9904 97.48 71.0784 97.54 71.1584 97.596C71.2384 97.652 71.3464 97.7 71.4824 97.74C71.6264 97.772 71.8224 97.808 72.0704 97.848C72.3264 97.88 72.6704 97.912 73.1024 97.944C73.6544 97.984 74.0944 98.08 74.4224 98.232C74.7504 98.384 74.9904 98.588 75.1424 98.844C75.2944 99.1 75.3704 99.4 75.3704 99.744C75.3704 100.088 75.2744 100.412 75.0824 100.716C74.8984 101.028 74.6104 101.284 74.2184 101.484C73.8344 101.684 73.3344 101.784 72.7184 101.784ZM72.7064 97.08C72.1944 97.08 71.7624 96.984 71.4104 96.792C71.0664 96.6 70.8024 96.344 70.6184 96.024C70.4344 95.696 70.3424 95.336 70.3424 94.944C70.3424 94.544 70.4344 94.184 70.6184 93.864C70.8024 93.544 71.0704 93.288 71.4224 93.096C71.7744 92.904 72.2024 92.808 72.7064 92.808C73.2184 92.808 73.6464 92.904 73.9904 93.096C74.3424 93.288 74.6064 93.544 74.7824 93.864C74.9664 94.184 75.0584 94.544 75.0584 94.944C75.0584 95.336 74.9664 95.696 74.7824 96.024C74.6064 96.344 74.3424 96.6 73.9904 96.792C73.6464 96.984 73.2184 97.08 72.7064 97.08ZM72.7064 96.36C73.1704 96.36 73.5344 96.24 73.7984 96C74.0704 95.752 74.2064 95.4 74.2064 94.944C74.2064 94.48 74.0704 94.128 73.7984 93.888C73.5344 93.648 73.1704 93.528 72.7064 93.528C72.2424 93.528 71.8704 93.648 71.5904 93.888C71.3184 94.128 71.1824 94.48 71.1824 94.944C71.1824 95.4 71.3184 95.752 71.5904 96C71.8624 96.24 72.2344 96.36 72.7064 96.36ZM73.6904 93.708L73.3904 92.952H75.8384V93.636L73.6904 93.708Z" fill="black"/>
</svg>
