<svg width="46" height="30" viewBox="0 0 46 30" fill="none" xmlns="http://www.w3.org/2000/svg">
<path d="M33.182 8.86273L32.3359 10.9168H34.0366L33.182 8.86273Z" fill="white"/>
<path d="M3.94189 8.86273L3.10547 10.9168H4.78503L3.94189 8.86273Z" fill="white"/>
<path d="M23.3545 9.1537C23.2086 9.07111 22.9839 9.06055 22.7707 9.06055H21.2534V10.2043H22.7505C22.9877 10.2043 23.1875 10.2004 23.3593 10.0986C23.5178 10.0151 23.6129 9.83358 23.6129 9.60887C23.6129 9.38801 23.514 9.2286 23.3545 9.1537Z" fill="white"/>
<path d="M28.6323 18.0173C28.4825 17.928 28.2616 17.9241 28.0446 17.9241H26.5273V19.0813H28.0244C28.2645 19.0813 28.4691 19.0736 28.6352 18.9766C28.7946 18.8787 28.8897 18.7029 28.8897 18.4811C28.8868 18.2593 28.7917 18.0999 28.6323 18.0173Z" fill="white"/>
<path d="M22.6349 17.9222H21.0293V19.2349H22.6195C23.093 19.2349 23.3878 19.0006 23.3878 18.556C23.3868 18.1027 23.0805 17.9222 22.6349 17.9222Z" fill="white"/>
<path d="M45.3852 18.6961C45.3765 18.6875 45.3669 18.6779 45.3583 18.6712C45.5916 18.5194 45.7472 18.2563 45.7472 17.9567V16.8591C45.7472 16.3876 45.366 16.0073 44.8954 16.0073H42.4275C41.6583 16.0073 41.0782 16.2339 40.6557 16.5758C40.5376 16.2455 40.2341 16.0073 39.8625 16.0073H37.3945C36.7156 16.0073 36.1807 16.1754 35.7736 16.4519C35.6257 16.1878 35.3597 16.0073 35.0409 16.0073H30.9308C30.5995 16.0073 30.3201 16.2003 30.1789 16.4759C30.1203 16.4346 30.0771 16.3866 30.0156 16.3501C29.4193 16.0313 28.7855 16.0073 28.1325 16.0073H25.2871C24.9558 16.0073 24.6754 16.2022 24.5352 16.4798C24.1021 16.1984 23.4962 16.0073 22.6348 16.0073H18.6995C18.4623 16.0073 18.2367 16.1033 18.0744 16.2781L17.1419 17.2835L16.2469 16.2896C16.0866 16.1062 15.857 16.0063 15.6141 16.0063H10.6609C10.1903 16.0063 9.81006 16.3876 9.81006 16.8581V22.012C9.81006 22.4835 10.1913 22.8638 10.6609 22.8638H15.5401C15.7773 22.8638 16.003 22.7649 16.1643 22.5901L17.1045 21.5732L17.9966 22.5767C18.1579 22.7591 18.3903 22.8619 18.6333 22.8619H21.0273C21.4988 22.8619 21.8791 22.4807 21.8791 22.012V21.1324H22.5637C23.3963 21.1324 23.9984 20.9615 24.4363 20.7012V22.012C24.4363 22.4816 24.8176 22.8619 25.2881 22.8619H26.5259C26.9974 22.8619 27.3777 22.4807 27.3777 22.012V20.9788H27.8415C27.9548 20.9788 28.0345 20.9826 28.0922 20.9864C28.096 21.0786 28.096 21.1891 28.0941 21.262V22.012C28.0941 22.4816 28.4772 22.8619 28.9459 22.8619H30.1818C30.3201 22.8619 30.4449 22.8244 30.5582 22.7659C30.6734 22.8225 30.7973 22.8619 30.9337 22.8619H35.0447C35.1782 22.8619 35.3021 22.8244 35.4144 22.7697C35.5268 22.8244 35.6478 22.8619 35.7841 22.8619H38.183C38.9464 22.8619 39.5687 22.6746 40.0344 22.3443C40.1621 22.6478 40.4637 22.8619 40.8161 22.8619H43.2149C44.9598 22.8619 45.9998 21.9352 45.9998 20.3843C45.9998 19.666 45.8058 19.1311 45.3852 18.6961ZM22.5647 20.2806H21.0282V22.0101H18.6342L17.1169 20.3046L15.5401 22.0101H10.6609V16.8552H15.6141L17.1314 18.5454L18.6986 16.8552H22.6338C23.6105 16.8552 24.71 17.1289 24.71 18.5559C24.71 19.9858 23.6422 20.2835 22.5647 20.2806ZM29.3761 19.6171C29.6488 19.7169 29.8726 19.8984 29.9763 20.0502C30.152 20.3017 30.175 20.5361 30.1808 20.9903V22.012H28.9449V21.3667C28.9449 21.0575 28.9747 20.5975 28.7442 20.3574C28.5675 20.174 28.2938 20.1308 27.8425 20.1308H26.5269V22.012H25.2891V16.8581H28.1344C28.7567 16.8581 29.2099 16.8841 29.6162 17.1001C30.0041 17.3344 30.249 17.6571 30.249 18.2438C30.249 19.0678 29.6987 19.4874 29.3761 19.6171ZM35.0428 17.9231H32.1581V18.8613H34.9717V19.9138H32.1581V20.9375L35.0428 20.9432V22.012H30.9327V16.8581H35.0428V17.9231ZM38.1839 22.0063H35.7851V20.8991H38.1733C38.4057 20.8991 38.5719 20.8702 38.6756 20.7713C38.7601 20.6926 38.8196 20.5745 38.8196 20.4343C38.8196 20.2845 38.7562 20.1663 38.6698 20.0943C38.5738 20.0156 38.447 19.98 38.231 19.98C37.0805 19.9426 35.6372 20.0156 35.6372 18.386C35.6372 17.636 36.1058 16.8514 37.3984 16.8514H39.8663V17.9481H37.6068C37.3811 17.9481 37.2361 17.9577 37.1132 18.0422C36.9778 18.1267 36.9269 18.2506 36.9269 18.4138C36.9269 18.6087 37.0412 18.7384 37.1958 18.7979C37.3273 18.8431 37.4656 18.8565 37.6759 18.8565L38.3376 18.8757C39.005 18.894 39.4649 19.0092 39.7425 19.2906C39.9845 19.5393 40.1122 19.8543 40.1122 20.3834C40.1122 21.4944 39.4217 22.012 38.1839 22.0063ZM43.2168 22.0063H40.818V20.8991H43.2072C43.4396 20.8991 43.6057 20.8702 43.7085 20.7713C43.793 20.6926 43.8525 20.5745 43.8525 20.4343C43.8525 20.2845 43.7892 20.1663 43.7027 20.0943C43.6077 20.0156 43.4809 19.98 43.2639 19.98C42.1125 19.9426 40.6701 20.0156 40.6701 18.386C40.6701 17.636 41.1387 16.8514 42.4313 16.8514H44.8993V17.9481H42.6406C42.414 17.9481 42.268 17.9577 42.1461 18.0422C42.0107 18.1267 41.9608 18.2506 41.9608 18.4138C41.9608 18.6087 42.076 18.7384 42.2287 18.7979C42.3612 18.8431 42.4985 18.8565 42.7088 18.8565L43.3705 18.8757C44.0388 18.894 44.4998 19.0092 44.7773 19.2906C45.0174 19.5393 45.147 19.8543 45.147 20.3834C45.147 21.4944 44.4546 22.012 43.2168 22.0063Z" fill="white"/>
<path d="M41.5192 7.13617H40.2584C39.7869 7.13617 39.4066 7.51741 39.4066 7.98699V8.51899L38.8218 7.54814C38.6662 7.29366 38.3906 7.13713 38.0939 7.13713H36.2165C35.7459 7.13713 35.3657 7.51837 35.3657 7.98795V8.71105L34.9134 7.65281C34.7799 7.34071 34.4726 7.13713 34.1327 7.13713H32.287C32.0997 7.13713 31.9211 7.19859 31.779 7.30614C31.6378 7.19955 31.4601 7.13713 31.2691 7.13713H30.0792C29.0671 7.13713 28.3181 7.38201 27.7669 7.86023C27.7035 7.45403 27.3664 7.13713 26.942 7.13713H25.684C25.3479 7.13713 25.0665 7.33591 24.9263 7.61632C24.8735 7.5779 24.8332 7.53181 24.7736 7.49724C24.1955 7.16306 23.5876 7.13713 22.8549 7.13713H20.0221C19.8627 7.13713 19.7234 7.19283 19.5947 7.26869C19.4689 7.19283 19.3278 7.13713 19.1684 7.13713H15.0545C14.8806 7.13713 14.7299 7.20147 14.5954 7.28982C14.46 7.20147 14.3093 7.13713 14.1364 7.13713H12.0833C11.7434 7.13713 11.4351 7.34167 11.3016 7.65665L10.5699 9.38134L9.76419 7.63168C9.62399 7.33015 9.3215 7.13713 8.99115 7.13713H6.9803C6.50975 7.13713 6.12947 7.51837 6.12947 7.98795V8.72834L5.66757 7.65089C5.53313 7.33879 5.22584 7.13617 4.88493 7.13617H3.05653C2.71562 7.13617 2.40833 7.33975 2.27389 7.65185L0.0690496 12.8058C-0.0442653 13.0698 -0.0164167 13.3694 0.140111 13.6095C0.2976 13.8477 0.564562 13.9917 0.85073 13.9917H2.18938C2.53125 13.9917 2.84142 13.7843 2.97298 13.4674L3.23322 12.8413H4.66022L4.91662 13.4636C5.04722 13.7824 5.35836 13.9908 5.70406 13.9908H8.20947C8.68002 13.9908 9.0603 13.6095 9.0603 13.1399V13.1198L9.22163 13.4856C9.35799 13.7929 9.66336 13.9917 9.99947 13.9917L11.0817 13.9936C11.4197 13.9936 11.7232 13.7949 11.8596 13.4866L12.0228 13.1217V13.1428C12.0228 13.6124 12.4031 13.9927 12.8736 13.9927H14.1364C14.3093 13.9927 14.46 13.9274 14.5954 13.84C14.7299 13.9274 14.8806 13.9927 15.0545 13.9927H19.1684C19.3278 13.9927 19.4689 13.937 19.5947 13.8611C19.7225 13.937 19.8627 13.9927 20.0221 13.9927H21.2551C21.7256 13.9927 22.1059 13.6114 22.1059 13.1419V12.1182H22.5765C22.683 12.1182 22.7589 12.1211 22.8156 12.1249C22.8213 12.2123 22.8194 12.316 22.8194 12.3851L22.8175 12.4985L22.8223 13.1486C22.8261 13.6153 23.2074 13.9927 23.6741 13.9927H24.9167C25.0559 13.9927 25.1817 13.9495 25.2979 13.8899C25.416 13.9504 25.5428 13.9927 25.683 13.9927H26.941C27.3539 13.9927 27.6804 13.695 27.7601 13.307C28.4583 13.8938 29.4416 13.9927 29.989 13.9927H31.4323C31.7761 13.9927 32.0872 13.7814 32.2169 13.4597L32.4675 12.8422H33.8868L34.1471 13.4684C34.2786 13.7843 34.5878 13.9917 34.9326 13.9917H37.4389C37.9095 13.9917 38.2898 13.6105 38.2898 13.1409V12.3275L39.0455 13.5807C39.2001 13.8352 39.4757 13.9917 39.7753 13.9917H41.5192C41.9898 13.9917 42.3701 13.6105 42.3701 13.1409V7.98699C42.3701 7.51741 41.9879 7.13617 41.5192 7.13617ZM14.1355 13.1399H12.8727L12.8679 9.10382L11.0817 13.1399H9.99947L8.21043 9.09997V13.1399H5.7031L5.22968 11.9905H2.66569L2.18746 13.1399H0.84881L3.05461 7.98603H4.88301L6.97934 12.8663V7.98603H8.9902L10.6025 11.4825L12.0823 7.98603H14.1355V13.1399ZM19.1674 9.05964H16.2846V9.98825H19.0992V11.0446H16.2846V12.074H19.1674V13.1399H15.0535V7.98603H19.1674V9.05964ZM24.1004 10.7488C24.3703 10.8525 24.6008 11.033 24.7102 11.1829C24.885 11.4393 24.9148 11.6678 24.9148 12.1278V13.139H23.6722L23.6664 12.4889C23.6664 12.1796 23.6962 11.7341 23.4724 11.4853C23.2928 11.3048 23.0182 11.2654 22.5745 11.2654H21.2541V13.1399H20.0211H20.0201V7.98699H22.853C23.483 7.98699 23.9468 8.00332 24.3444 8.23379C24.7342 8.46426 24.9676 8.80036 24.9676 9.37558C24.9676 10.1966 24.4193 10.622 24.1004 10.7488ZM26.942 13.1399H25.684V7.98603H26.942V13.1399ZM41.5192 13.1399H39.7744L37.438 9.27187V13.1399H34.9316L34.4515 11.9905H31.8913L31.4285 13.1399H29.9861C29.3878 13.1399 28.6321 13.0074 28.2038 12.5705C27.7678 12.1326 27.5431 11.5391 27.5431 10.6028C27.5431 9.83844 27.6785 9.13934 28.2028 8.58621C28.5994 8.17521 29.2227 7.98603 30.0735 7.98603H31.2633V9.09037H30.0965C29.6481 9.09037 29.3936 9.15663 29.1497 9.39574C28.9394 9.61277 28.7963 10.0228 28.7963 10.5635C28.7963 11.1147 28.9058 11.5122 29.1362 11.7725C29.3273 11.977 29.673 12.0385 29.9947 12.0385H30.5469L32.287 7.98603H34.1327L36.2165 12.8605V7.98603H38.0939L40.2584 11.5756V7.98603H41.5192V13.1399ZM30.5258 9.94215L29.9909 11.1896C29.8728 11.1896 29.7931 11.1761 29.7489 11.1646C29.7076 11.0878 29.651 10.9178 29.651 10.5644C29.651 10.2072 29.7374 10.0219 29.7489 10.0055C29.7844 9.97096 29.8142 9.94119 30.1033 9.94119L30.5258 9.94215Z" fill="white"/>
<path d="M17.9102 19.4433L19.8019 21.5444V17.4123L17.9102 19.4433Z" fill="white"/>
<path d="M14.9775 17.9241H11.8911V18.8604H14.5943V19.9129H11.8911V20.9385H14.918L16.3248 19.4241L14.9775 17.9241Z" fill="white"/>
</svg>
