<svg width="48" height="48" viewBox="0 0 48 48" fill="none" xmlns="http://www.w3.org/2000/svg">
<path d="M29.1562 23.0625C29.674 23.0625 30.0938 22.6428 30.0938 22.125C30.0938 21.6072 29.674 21.1875 29.1562 21.1875C28.6385 21.1875 28.2188 21.6072 28.2188 22.125C28.2188 22.6428 28.6385 23.0625 29.1562 23.0625Z" fill="black"/>
<path d="M46.9688 18.9C45.1284 18.9 43.6312 17.4028 43.6312 15.5625C43.6312 15.0448 43.2114 14.625 42.6937 14.625H40.4062V12.3375C40.4062 11.8198 39.9864 11.4 39.4688 11.4C37.6284 11.4 36.1312 9.90281 36.1312 8.0625C36.1312 7.54481 35.7114 7.125 35.1937 7.125H5.30625C4.78856 7.125 4.36875 7.54481 4.36875 8.0625C4.36875 9.90281 2.87156 11.4 1.03125 11.4C0.513563 11.4 0.09375 11.8198 0.09375 12.3375V28.1625C0.09375 28.6802 0.513563 29.1 1.03125 29.1C2.87156 29.1 4.36875 30.5972 4.36875 32.4375C4.36875 32.9552 4.78856 33.375 5.30625 33.375H5.71875V35.6625C5.71875 36.1802 6.13856 36.6 6.65625 36.6C8.49656 36.6 9.99375 38.0972 9.99375 39.9375C9.99375 40.4552 10.4136 40.875 10.9312 40.875H42.6937C43.2114 40.875 43.6312 40.4552 43.6312 39.9375C43.6312 38.0972 45.1284 36.6 46.9688 36.6C47.4864 36.6 47.9062 36.1802 47.9062 35.6625V19.8375C47.9062 19.3197 47.4864 18.9 46.9688 18.9ZM1.96875 27.3095V13.1905C4.09284 12.8032 5.77191 11.1241 6.15928 9H13.2188C13.2188 9.51769 13.6386 9.9375 14.1562 9.9375C14.6739 9.9375 15.0938 9.51769 15.0938 9H34.3407C34.7281 11.1241 36.4072 12.8032 38.5312 13.1905V27.3095C36.4072 27.6968 34.7281 29.3759 34.3407 31.5H15.0938C15.0938 30.9823 14.6739 30.5625 14.1562 30.5625C13.6386 30.5625 13.2188 30.9823 13.2188 31.5H6.15928C5.77191 29.3759 4.09284 27.6968 1.96875 27.3095ZM46.0312 34.8095C43.9072 35.1968 42.2281 36.8759 41.8407 39H11.7843C11.3969 36.8759 9.71784 35.1968 7.59375 34.8095V33.375H35.1937C35.7114 33.375 36.1312 32.9552 36.1312 32.4375C36.1312 30.5972 37.6284 29.1 39.4688 29.1C39.9864 29.1 40.4062 28.6802 40.4062 28.1625V16.5H41.8407C42.2281 18.6241 43.9072 20.3032 46.0312 20.6905V34.8095Z" fill="black"/>
<path d="M22.6458 21.5045C22.3119 23.4966 23.6073 25.3476 25.5019 25.7806C25.8854 27.4437 27.3784 28.6875 29.1563 28.6875C30.9346 28.6875 32.4278 27.4432 32.811 25.7797C34.4746 25.3964 35.7188 23.9032 35.7188 22.125C35.7188 20.3098 34.4415 18.8421 32.8107 18.4694C32.3738 16.5748 30.524 15.2813 28.5357 15.6143C26.6977 13.2766 23.6102 12.2272 20.6998 13.0049C20.3758 13.0915 20.1228 13.3446 20.0362 13.6686C19.2582 16.58 20.309 19.6672 22.6458 21.5045ZM31.0313 19.3125C31.0313 19.8302 31.4512 20.25 31.9688 20.25C33.0044 20.25 33.8438 21.0895 33.8438 22.125C33.8438 23.1589 33.0027 24 31.9688 24C31.4512 24 31.0313 24.4198 31.0313 24.9375C31.0313 25.9714 30.1902 26.8125 29.1563 26.8125C28.1225 26.8125 27.2813 25.9714 27.2813 24.9375C27.2813 24.4198 26.8615 24 26.3438 24C25.0131 24 24.1197 22.6477 24.5921 21.4564C24.5923 21.456 24.5924 21.4555 24.5926 21.4552C24.8602 20.7559 25.5388 20.25 26.3438 20.25C26.8615 20.25 27.2813 19.8302 27.2813 19.3125C27.2813 18.3034 28.102 17.4375 29.1563 17.4375C30.1902 17.4375 31.0313 18.2786 31.0313 19.3125ZM21.7305 14.6992C23.6164 14.3921 25.5034 15.0661 26.7661 16.4266C26.1495 16.9389 25.6959 17.6477 25.5038 18.4689C24.6818 18.6564 23.9705 19.1124 23.4566 19.7336C22.0956 18.4697 21.4239 16.5825 21.7305 14.6992Z" fill="black"/>
<path d="M14.1562 14.625C14.6739 14.625 15.0938 14.2052 15.0938 13.6875V12.75C15.0938 12.2323 14.6739 11.8125 14.1562 11.8125C13.6386 11.8125 13.2188 12.2323 13.2188 12.75V13.6875C13.2188 14.2052 13.6386 14.625 14.1562 14.625Z" fill="black"/>
<path d="M14.1562 19.3125C14.6739 19.3125 15.0938 18.8927 15.0938 18.375V17.4375C15.0938 16.9198 14.6739 16.5 14.1562 16.5C13.6386 16.5 13.2188 16.9198 13.2188 17.4375V18.375C13.2188 18.8927 13.6386 19.3125 14.1562 19.3125Z" fill="black"/>
<path d="M14.1562 24C14.6739 24 15.0938 23.5802 15.0938 23.0625V22.125C15.0938 21.6073 14.6739 21.1875 14.1562 21.1875C13.6386 21.1875 13.2188 21.6073 13.2188 22.125V23.0625C13.2188 23.5802 13.6386 24 14.1562 24Z" fill="black"/>
<path d="M14.1562 28.6875C14.6739 28.6875 15.0938 28.2677 15.0938 27.75V26.8125C15.0938 26.2948 14.6739 25.875 14.1562 25.875C13.6386 25.875 13.2188 26.2948 13.2188 26.8125V27.75C13.2188 28.2677 13.6386 28.6875 14.1562 28.6875Z" fill="black"/>
<path d="M6.65625 15.5625H10.4062C10.9239 15.5625 11.3438 15.1427 11.3438 14.625C11.3438 14.1073 10.9239 13.6875 10.4062 13.6875H6.65625C6.13856 13.6875 5.71875 14.1073 5.71875 14.625C5.71875 15.1427 6.13856 15.5625 6.65625 15.5625Z" fill="black"/>
<path d="M6.65625 19.3125H10.4062C10.9239 19.3125 11.3438 18.8927 11.3438 18.375C11.3438 17.8573 10.9239 17.4375 10.4062 17.4375H6.65625C6.13856 17.4375 5.71875 17.8573 5.71875 18.375C5.71875 18.8927 6.13856 19.3125 6.65625 19.3125Z" fill="black"/>
<path d="M6.65625 23.0625H10.4062C10.9239 23.0625 11.3438 22.6427 11.3438 22.125C11.3438 21.6073 10.9239 21.1875 10.4062 21.1875H6.65625C6.13856 21.1875 5.71875 21.6073 5.71875 22.125C5.71875 22.6427 6.13856 23.0625 6.65625 23.0625Z" fill="black"/>
<path d="M10.4062 26.8125C10.9239 26.8125 11.3438 26.3927 11.3438 25.875C11.3438 25.3573 10.9239 24.9375 10.4062 24.9375H6.65625C6.13856 24.9375 5.71875 25.3573 5.71875 25.875C5.71875 26.3927 6.13856 26.8125 6.65625 26.8125H10.4062Z" fill="black"/>
</svg>
