<svg width="48" height="48" viewBox="0 0 48 48" fill="none" xmlns="http://www.w3.org/2000/svg">
<path d="M44.8902 9.49027L36.3187 6.0617C36.1141 5.97968 35.8857 5.97968 35.681 6.0617L27.1096 9.49027C26.9507 9.55395 26.8145 9.66374 26.7186 9.80551C26.6226 9.94728 26.5713 10.1145 26.5713 10.2857V19.1451C26.5757 20.773 26.9993 22.3723 27.8013 23.7889C28.6033 25.2055 29.7566 26.3917 31.1501 27.2331L35.5593 29.8783C35.6924 29.958 35.8447 30.0002 35.9999 30.0002C36.155 30.0002 36.3073 29.958 36.4404 29.8783L40.2856 27.5708V37.1708C40.2851 37.5435 40.1369 37.9008 39.8734 38.1643C39.6098 38.4279 39.2525 38.5761 38.8799 38.5766H5.69129C5.31861 38.5761 4.96132 38.4279 4.6978 38.1643C4.43428 37.9008 4.28603 37.5435 4.28557 37.1708V18H23.9999C24.2272 18 24.4452 17.9097 24.606 17.7489C24.7667 17.5882 24.857 17.3702 24.857 17.1428C24.857 16.9155 24.7667 16.6975 24.606 16.5367C24.4452 16.376 24.2272 16.2857 23.9999 16.2857H4.28557V14.2628C4.28603 13.8902 4.43428 13.5329 4.6978 13.2694C4.96132 13.0058 5.31861 12.8576 5.69129 12.8571H23.9999C24.2272 12.8571 24.4452 12.7668 24.606 12.6061C24.7667 12.4453 24.857 12.2273 24.857 12C24.857 11.7727 24.7667 11.5546 24.606 11.3939C24.4452 11.2331 24.2272 11.1428 23.9999 11.1428H5.69129C4.86395 11.1433 4.07063 11.4722 3.48562 12.0572C2.9006 12.6422 2.57174 13.4355 2.57129 14.2628V37.1657C2.57174 37.993 2.9006 38.7864 3.48562 39.3714C4.07063 39.9564 4.86395 40.2852 5.69129 40.2857H38.8799C39.7072 40.2852 40.5005 39.9564 41.0855 39.3714C41.6706 38.7864 41.9994 37.993 41.9999 37.1657V26.4C43.0676 25.5147 43.9281 24.4059 44.5205 23.1517C45.1129 21.8976 45.4228 20.5287 45.4284 19.1417V10.2857C45.4284 10.1145 45.3771 9.94728 45.2812 9.80551C45.1852 9.66374 45.049 9.55395 44.8902 9.49027ZM43.7141 19.1451C43.7106 20.4771 43.364 21.7857 42.7076 22.9448C42.0512 24.1038 41.1072 25.0742 39.9667 25.7623L35.9999 28.1434L32.033 25.7623C30.8925 25.0742 29.9485 24.1038 29.2921 22.9448C28.6357 21.7857 28.2891 20.4771 28.2856 19.1451V10.8651L35.9999 7.77941L43.7141 10.8651V19.1451Z" fill="white"/>
<path d="M33.1783 16.6834C33.0988 16.6037 33.0043 16.5405 32.9002 16.4973C32.7962 16.4542 32.6847 16.4319 32.5721 16.4318C32.4595 16.4317 32.3479 16.4538 32.2438 16.4969C32.1398 16.5399 32.0452 16.603 31.9655 16.6826C31.8858 16.7622 31.8226 16.8567 31.7794 16.9607C31.7362 17.0647 31.7139 17.1762 31.7139 17.2888C31.7138 17.4015 31.7359 17.513 31.7789 17.6171C31.8219 17.7212 31.885 17.8157 31.9646 17.8954L34.2515 20.1806C34.4122 20.3413 34.6302 20.4315 34.8575 20.4315C35.0848 20.4315 35.3028 20.3413 35.4635 20.1806L40.0355 15.6086C40.1962 15.4476 40.2864 15.2294 40.2863 15.002C40.2861 14.7745 40.1956 14.5564 40.0346 14.3957C39.8737 14.235 39.6555 14.1448 39.428 14.145C39.2006 14.1451 38.9825 14.2356 38.8218 14.3966L34.8566 18.3634L33.1783 16.6834Z" fill="white"/>
<path d="M8.5715 33.4286C8.34417 33.4286 8.12615 33.5189 7.96541 33.6796C7.80466 33.8404 7.71436 34.0584 7.71436 34.2857C7.71436 34.5131 7.80466 34.7311 7.96541 34.8918C8.12615 35.0526 8.34417 35.1429 8.5715 35.1429H15.4286C15.656 35.1429 15.874 35.0526 16.0347 34.8918C16.1955 34.7311 16.2858 34.5131 16.2858 34.2857C16.2858 34.0584 16.1955 33.8404 16.0347 33.6796C15.874 33.5189 15.656 33.4286 15.4286 33.4286H8.5715Z" fill="white"/>
</svg>
