<svg width="48" height="48" viewBox="0 0 48 48" fill="none" xmlns="http://www.w3.org/2000/svg">
<path d="M38.2051 20.6214H38.1078V18.2562C38.1078 10.6589 31.9006 4.5 24.2434 4.5C16.5862 4.5 10.379 10.6589 10.379 18.2562V20.6214H9.79525C7.65475 20.6214 6.00078 22.5037 6.00078 24.6759V30.7093C5.94686 32.8145 7.62328 34.5645 9.74506 34.618C9.76182 34.6185 9.77849 34.6187 9.79525 34.6189H13.3951C13.905 34.5952 14.299 34.1657 14.2749 33.6598C14.2741 33.6416 14.2727 33.6234 14.2708 33.6053V21.7797C14.2708 21.2005 13.9302 20.6213 13.3951 20.6213H12.3249V18.2562C12.3249 11.7251 17.661 6.43061 24.2434 6.43061C30.8258 6.43061 36.1619 11.7251 36.1619 18.2562V20.6213H35.0917C34.5566 20.6213 34.2161 21.2004 34.2161 21.7797V33.6053C34.1618 34.1089 34.5292 34.5608 35.0368 34.6147C35.055 34.6166 35.0734 34.618 35.0917 34.6188H36.2105L36.1132 34.7636C34.6535 36.6885 32.3629 37.8159 29.9351 37.8044C29.4036 35.2186 26.8599 33.5498 24.2537 34.0773C22.0251 34.5282 20.4182 36.4648 20.4002 38.7216C20.4269 41.3684 22.5972 43.5002 25.2649 43.5C26.5856 43.4788 27.8444 42.9411 28.7675 42.0037C29.3903 41.3708 29.7985 40.5609 29.9351 39.6868C32.9754 39.6983 35.8427 38.2848 37.6699 35.8737L38.5943 34.5222C40.6861 34.3774 41.9995 33.0742 41.9995 31.1917V25.1583C41.9996 23.083 40.4429 20.6214 38.2051 20.6214ZM12.3249 32.6882H9.79525C8.74772 32.6629 7.9192 31.7999 7.94471 30.7606C7.94517 30.7435 7.94583 30.7264 7.94666 30.7092V24.6758C7.94666 23.5656 8.725 22.552 9.79525 22.552H12.3249V32.6882ZM27.3568 40.6524C26.8177 41.2324 26.0602 41.5645 25.265 41.5695C23.6823 41.5445 22.3979 40.2914 22.3462 38.7216C22.3456 37.1488 23.6301 35.8734 25.2152 35.8727C26.8004 35.8721 28.0859 37.1465 28.0866 38.7193C28.0866 38.7201 28.0866 38.7209 28.0866 38.7216C28.1271 39.4383 27.8623 40.1389 27.3568 40.6524ZM40.0537 31.1919C40.0537 32.4951 38.7889 32.6882 38.2051 32.6882H36.1619V22.5521H38.2051C39.2754 22.5521 40.0537 24.0484 40.0537 25.1585V31.1919Z" fill="black"/>
</svg>
