<svg width="32" height="32" viewBox="0 0 32 32" fill="none" xmlns="http://www.w3.org/2000/svg">
<path opacity="0.9" d="M0.5 3.2442C0.5 1.60019 1.83273 0.267456 3.47674 0.267456H28.5233C30.1673 0.267456 31.5 1.60019 31.5 3.2442V27.2675H0.5V3.2442Z" fill="#B1C2DF"/>
<path d="M15.4776 16.8822L15.7321 14.7027L14.272 16.0882L13.5889 14.7027L15.3169 13.9243L13.6023 13.1615L14.2318 11.8538L15.7455 13.2082L15.4642 11.0132H16.777L16.4823 13.2082L17.9959 11.8538L18.6121 13.1459L16.8841 13.9399L18.6255 14.7183L17.9691 16.0726L16.4823 14.7027L16.7636 16.8822H15.4776Z" fill="#0647B4"/>
<rect y="25.0811" width="32" height="6.91892" rx="3.45946" fill="#0647B4"/>
</svg>
