<svg width="108" height="109" viewBox="0 0 108 109" fill="none" xmlns="http://www.w3.org/2000/svg">
<path d="M66.6943 77.452C70.9474 77.452 72.9792 75.2428 73.9347 73.3896C74.9396 71.4405 74.95 69.4989 74.95 69.4171L72.7774 69.4186V69.4147C72.7773 69.4301 72.758 70.9725 71.9713 72.4559C70.9777 74.3294 69.2023 75.2793 66.6943 75.2793V77.452Z" fill="#3535AA"/>
<path d="M63.9028 44.8987L67.5633 40.8861C67.9593 41.2472 76.6381 49.3946 76.6137 67.7598C76.613 68.2643 76.4265 68.7517 76.091 69.1286L74.4771 70.9422C74.1068 71.3581 73.4465 71.3235 73.1219 70.8711L71.6075 68.7608C71.332 68.3769 71.183 67.9162 71.1803 67.4436C71.1374 59.9229 69.4708 54.5336 67.9492 51.1726C66.0231 46.9183 63.9028 44.8987 63.9028 44.8987Z" fill="#0647B4"/>
<path d="M67.5628 40.8861C67.8687 41.1651 73.1168 46.0926 75.4778 56.786C74.9316 61.1193 73.3672 64.8936 71.1821 67.4968C71.1816 67.4791 71.1799 67.4615 71.1798 67.4437C71.1369 59.923 69.4703 54.5337 67.9487 51.1727C66.0228 46.9183 63.9094 44.9055 63.8882 44.8857L67.5628 40.8861Z" fill="#0647B4"/>
<path d="M42.3055 77.452C38.0524 77.452 36.0206 75.2428 35.0651 73.3896C34.0602 71.4405 34.0498 69.4989 34.0498 69.4171L36.2224 69.4186V69.4147C36.2225 69.4301 36.2418 70.9725 37.0285 72.4559C38.0221 74.3294 39.7975 75.2793 42.3056 75.2793L42.3055 77.452Z" fill="#3535AA"/>
<path d="M45.0971 44.8987L41.4367 40.8861C41.0407 41.2472 32.3619 49.3946 32.3863 67.7598C32.387 68.2643 32.5735 68.7517 32.9089 69.1286L34.523 70.9422C34.8932 71.3581 35.5536 71.3235 35.8782 70.8711L37.3925 68.7608C37.668 68.3769 37.817 67.9162 37.8198 67.4436C37.8626 59.9229 39.5293 54.5336 41.0508 51.1726C42.9768 46.9183 45.0971 44.8987 45.0971 44.8987Z" fill="#0647B4"/>
<path d="M41.437 40.8861C41.1312 41.1651 35.883 46.0926 33.522 56.786C34.0682 61.1193 35.6326 64.8936 37.8177 67.4968C37.8182 67.4791 37.8199 67.4615 37.82 67.4437C37.8629 59.923 39.5295 54.5337 41.0511 51.1727C42.977 46.9183 45.0975 44.8988 45.0975 44.8988L41.437 40.8861Z" fill="#0647B4"/>
<path d="M51.8116 42.8925V36.6795C51.8116 35.1971 53.0176 33.9912 54.4998 33.9912C55.982 33.9912 57.188 35.1972 57.188 36.6795V42.8925H60.4468V36.6795C60.4469 33.4086 57.7707 30.7324 54.4998 30.7324C51.2289 30.7324 48.5527 33.4086 48.5527 36.6795V42.8925H51.8116Z" fill="#0647B4"/>
<path d="M57.1882 36.6795V42.8925H60.447V38.5207C60.447 38.5207 59.7843 33.9912 54.5 33.9912C55.9822 33.9912 57.1882 35.1972 57.1882 36.6795Z" fill="#0647B4"/>
<path d="M51.8116 42.8925V36.6795C51.8116 35.1971 53.0176 33.9912 54.4998 33.9912C49.2154 33.9912 48.5527 38.5207 48.5527 38.5207V42.8925H51.8116Z" fill="#0647B4"/>
<path d="M65.6878 79.2676H43.3122C41.2124 79.2676 39.5103 77.5654 39.5103 75.4656V42.8925H69.4898V75.4656C69.4897 77.5654 67.7876 79.2676 65.6878 79.2676Z" fill="#0647B4"/>
<path d="M47.4939 75.4656V42.8925H39.5103V75.4656C39.5103 77.5654 41.2124 79.2676 43.3122 79.2676H51.2959C49.1961 79.2676 47.4939 77.5654 47.4939 75.4656Z" fill="#0647B4"/>
<path d="M39.5103 65.9008C40.6195 66.6767 41.9675 67.1338 43.4208 67.1338H65.5792C67.0326 67.1338 68.3806 66.6767 69.4897 65.9008V42.8925H39.5103V65.9008Z" fill="#0647B4"/>
<path d="M39.5103 42.8925V65.9008C40.6194 66.6767 41.9675 67.1338 43.4208 67.1338H47.4938V42.8925H39.5103Z" fill="#0647B4"/>
<path d="M41.7707 71.7535C40.9604 71.7535 40.1937 71.9393 39.5103 72.2702V75.4657C39.5103 77.5655 41.2125 79.2677 43.3122 79.2677H46.4163C46.766 78.5691 46.964 77.7813 46.964 76.9468C46.964 74.0786 44.6389 71.7535 41.7707 71.7535Z" fill="#E9F1FF"/>
<path d="M67.2294 71.7535C68.0396 71.7535 68.8064 71.9393 69.4898 72.2702V75.4657C69.4898 77.5655 67.7876 79.2677 65.6879 79.2677H62.5838C62.2341 78.5691 62.0361 77.7813 62.0361 76.9468C62.0361 74.0786 64.3612 71.7535 67.2294 71.7535Z" fill="#E9F1FF"/>
<path d="M65.5792 64.2041H43.4208C41.27 64.2041 39.5103 62.4443 39.5103 60.2935V42.4312C39.5103 40.2805 41.27 38.5207 43.4208 38.5207H65.5792C67.73 38.5207 69.4897 40.2805 69.4897 42.4312V60.2935C69.4897 62.4443 67.73 64.2041 65.5792 64.2041Z" fill="#0647B4"/>
<path d="M47.0463 60.2935V42.4312C47.0463 40.2805 48.8061 38.5207 50.9568 38.5207H43.4208C41.27 38.5207 39.5103 40.2805 39.5103 42.4312V60.2935C39.5103 62.4443 41.27 64.2041 43.4208 64.2041H50.9568C48.8061 64.2041 47.0463 62.4443 47.0463 60.2935Z" fill="#0647B4"/>
<path d="M47.4941 69.418C46.3292 69.418 45.376 68.4648 45.376 67.2998V53.4805C45.376 52.3155 46.3291 51.3623 47.4941 51.3623C48.6591 51.3623 49.6123 52.3154 49.6123 53.4805V67.2998C49.6122 68.4648 48.6591 69.418 47.4941 69.418Z" fill="#E9F1FF"/>
<path d="M47.494 67.2999V53.4806C47.494 52.7008 47.9214 52.0165 48.5531 51.6488C48.241 51.4672 47.8793 51.3625 47.494 51.3625C46.3291 51.3625 45.376 52.3156 45.376 53.4806V67.2999C45.376 68.4648 46.3291 69.4181 47.494 69.4181C47.8793 69.4181 48.241 69.3133 48.5531 69.1317C47.9214 68.764 47.494 68.0796 47.494 67.2999Z" fill="#E9F1FF"/>
<path d="M61.4082 69.418C60.2433 69.418 59.29 68.4648 59.29 67.2998V53.4805C59.29 52.3155 60.2432 51.3623 61.4082 51.3623C62.5731 51.3623 63.5264 52.3154 63.5264 53.4805V67.2998C63.5264 68.4648 62.5731 69.418 61.4082 69.418Z" fill="#E9F1FF"/>
<path d="M61.4081 67.2999V53.4806C61.4081 52.7008 61.8354 52.0165 62.4672 51.6488C62.1551 51.4672 61.7934 51.3625 61.4081 51.3625C60.2432 51.3625 59.29 52.3156 59.29 53.4806V67.2999C59.29 68.4648 60.2432 69.4181 61.4081 69.4181C61.7934 69.4181 62.1551 69.3133 62.4672 69.1317C61.8354 68.764 61.4081 68.0796 61.4081 67.2999Z" fill="#E9F1FF"/>
<path d="M54.5 49.8657C56.1409 49.8657 57.4712 48.5355 57.4712 46.8945C57.4712 45.2536 56.1409 43.9233 54.5 43.9233C52.8591 43.9233 51.5288 45.2536 51.5288 46.8945C51.5288 48.5355 52.8591 49.8657 54.5 49.8657Z" fill="white"/>
<path d="M54.5001 46.8948C54.5001 45.7952 55.0979 44.8359 55.9857 44.3221C55.5486 44.069 55.0415 43.9235 54.5001 43.9235C52.8591 43.9235 51.5288 45.2538 51.5288 46.8947C51.5288 48.5357 52.8591 49.866 54.5001 49.866C55.0415 49.866 55.5485 49.7205 55.9857 49.4675C55.0979 48.9538 54.5001 47.9944 54.5001 46.8948Z" fill="#D1E7F8"/>
<path d="M51.9528 48.592C52.3333 48.4548 52.5306 48.035 52.3933 47.6545C52.3058 47.4117 52.2612 47.1561 52.2612 46.8948C52.2612 45.6604 53.2655 44.6561 54.5001 44.6561C55.7347 44.6561 56.739 45.6604 56.739 46.8948C56.739 48.1294 55.7347 49.1337 54.5001 49.1337C54.31 49.1337 54.1216 49.1101 53.9403 49.0633C53.5481 48.962 53.1491 49.1982 53.0483 49.5899C52.9475 49.9816 53.1831 50.381 53.5749 50.4818C53.8755 50.5593 54.1868 50.5985 54.5002 50.5985C56.5424 50.5985 58.2039 48.937 58.2039 46.8948C58.2039 44.8526 56.5423 43.1912 54.5001 43.1912C52.4579 43.1912 50.7964 44.8526 50.7964 46.8948C50.7964 47.3261 50.87 47.7489 51.0153 48.1516C51.1527 48.5321 51.5725 48.7295 51.9528 48.592Z" fill="black"/>
<path d="M77.346 67.7609C77.3465 67.3465 77.3425 66.9256 77.3341 66.5099C77.3261 66.1104 76.9999 65.7922 76.6022 65.7922C76.5972 65.7922 76.5921 65.7923 76.5872 65.7924C76.1827 65.8005 75.8615 66.135 75.8697 66.5394C75.8778 66.9445 75.8817 67.3549 75.8811 67.7588C75.8806 68.084 75.7609 68.3976 75.5437 68.6415C75.5437 68.6415 73.851 70.5026 73.8205 70.5008C73.7906 70.4991 72.2024 68.3338 72.2024 68.3338C72.0146 68.0722 71.9144 67.7628 71.9125 67.4395C71.8884 63.2242 71.2523 58.9001 70.2222 55.2461V45.4699C72.3596 48.9048 75.0312 54.7857 75.7141 63.3896C75.7446 63.7731 76.1264 64.0732 76.5022 64.0618C76.9065 64.0495 77.2064 63.6771 77.1744 63.2737C76.3288 52.6202 72.5076 45.9591 70.2222 42.8568C70.2222 42.8568 70.8575 37.7883 65.5793 37.7883H61.1794V36.6794C61.1795 32.9964 58.1833 30 54.5001 30C50.817 30 47.8208 32.9964 47.8208 36.6794V37.7882H43.4209C38.3869 37.7882 38.778 42.8566 38.778 42.8566C36.0476 46.561 31.6369 54.5897 31.6543 67.7608C31.6552 68.4448 31.9067 69.1035 32.3624 69.6155L33.4639 70.8533C33.6014 71.6338 33.8738 72.6767 34.4144 73.7253C35.1631 75.1773 36.6376 77.0389 39.4365 77.8167C40.2328 79.1247 41.6722 80 43.3124 80H65.688C67.3282 80 68.7676 79.1247 69.5639 77.8167C72.3629 77.0388 73.8374 75.1773 74.586 73.7252C75.1325 72.6653 75.4027 71.612 75.5365 70.8533L76.638 69.6155C77.0936 69.1035 77.3452 68.4448 77.346 67.7609ZM71.0123 69.188L71.9124 70.4422C71.8139 70.9154 71.6379 71.5216 71.3245 72.1128C71.0301 72.6678 70.6651 73.121 70.2223 73.4816V63.0342C70.3629 64.4691 70.4391 65.9416 70.4477 67.4479C70.4514 68.0767 70.6466 68.6783 71.0123 69.188ZM49.2856 36.6794C49.2856 33.8041 51.6249 31.4648 54.5001 31.4648C57.3754 31.4648 59.7147 33.8041 59.7147 36.6794V37.7882H57.9208V36.6795C57.9208 34.7934 56.3863 33.2588 54.5001 33.2588C52.614 33.2588 51.0795 34.7934 51.0795 36.6795V37.7883H49.2856V36.6794ZM56.4559 37.7883H52.5443V36.6795C52.5443 35.601 53.4216 34.7236 54.5001 34.7236C55.5785 34.7236 56.4558 35.601 56.4558 36.6795L56.4559 37.7883ZM40.2428 42.4312C40.2428 40.6789 41.6686 39.2531 43.4209 39.2531H65.5793C67.3317 39.2531 68.7575 40.6789 68.7575 42.4312V56.401V60.2936C68.7575 62.0459 67.3317 63.4717 65.5793 63.4717H64.2589V53.4805C64.2589 51.9087 62.9801 50.63 61.4084 50.63C59.8368 50.63 58.558 51.9088 58.558 53.4805V63.4717H50.3447V53.4805C50.3447 51.9087 49.0659 50.63 47.4942 50.63C45.9225 50.63 44.6437 51.9088 44.6437 53.4805V63.4717H43.421C41.6687 63.4717 40.2429 62.0459 40.2429 60.2936V56.4498L40.2428 42.4312ZM62.7941 61.235H60.0227V53.4805C60.0227 52.7164 60.6443 52.0948 61.4084 52.0948C62.1724 52.0948 62.794 52.7164 62.794 53.4805V61.235H62.7941ZM62.7941 62.6998V65.4712H60.0227V62.6998H62.7941ZM60.0227 66.936H62.7941V67.2999C62.7941 68.064 62.1725 68.6855 61.4084 68.6855C60.6444 68.6855 60.0228 68.064 60.0228 67.2999V66.936H60.0227ZM48.8797 61.235H46.1084V53.4805C46.1084 52.7164 46.7299 52.0948 47.494 52.0948C48.2581 52.0948 48.8796 52.7164 48.8796 53.4805V61.235H48.8797ZM48.8797 62.6998V65.4712H46.1084V62.6998H48.8797ZM46.1084 66.936H48.8797V67.2999C48.8797 68.064 48.2582 68.6855 47.4941 68.6855C46.73 68.6855 46.1084 68.064 46.1084 67.2999V66.936H46.1084ZM38.778 73.4817C38.3352 73.1211 37.9702 72.6679 37.6758 72.1129C37.3625 71.522 37.1865 70.9157 37.0879 70.4423L37.988 69.188C38.3537 68.6783 38.5489 68.0767 38.5526 67.4479C38.5612 65.9405 38.6371 64.467 38.778 63.0311V73.4817ZM38.778 45.4662V55.2328C37.6818 58.9637 37.1126 63.0694 37.0877 67.4395C37.0858 67.763 36.9856 68.0723 36.7978 68.3339C36.7978 68.3339 35.2095 70.4993 35.1797 70.5009C35.1483 70.5024 33.4565 68.6416 33.4565 68.6416C33.2393 68.3977 33.1196 68.0841 33.1191 67.7589C33.1046 56.7891 36.2348 49.5413 38.778 45.4662ZM35.7163 73.054C35.5263 72.6856 35.3757 72.3171 35.2554 71.9638C35.2557 71.9638 35.2561 71.9638 35.2564 71.9638C35.4993 71.951 35.731 71.8844 35.9377 71.772C36.0528 72.1042 36.1978 72.4525 36.3816 72.799C36.951 73.8728 37.7558 74.6882 38.7779 75.2288C38.7779 75.2288 38.742 75.6884 38.8156 76.0404C37.47 75.4368 36.4297 74.4376 35.7163 73.054ZM40.2428 75.4656V72.7555C40.7301 72.5772 41.2421 72.4859 41.7709 72.4859C44.0751 72.4859 45.9607 74.2887 46.2165 76.5754C46.2936 77.2653 46.9861 77.247 47.0065 77.2452C47.4096 77.212 47.7095 76.8584 47.6763 76.4552C47.5548 74.9776 46.8866 73.6074 45.7949 72.597C44.6968 71.5808 43.2677 71.021 41.7708 71.021C41.2478 71.021 40.7373 71.0896 40.2427 71.2216V63.6736C41.0741 64.4558 42.192 64.9364 43.4209 64.9364H44.6435V67.2997C44.6435 68.8715 45.9223 70.1502 47.494 70.1502C49.0657 70.1502 50.3445 68.8714 50.3445 67.2997V64.9364H58.5578V67.2997C58.5578 68.8715 59.8366 70.1502 61.4083 70.1502C62.9799 70.1502 64.2587 68.8714 64.2587 67.2997V64.9364H65.5792C66.808 64.9364 67.9259 64.4558 68.7573 63.6736V71.2216C68.2627 71.0896 67.7522 71.021 67.2293 71.021C63.9619 71.021 61.3036 73.6793 61.3036 76.9467C61.3036 77.4909 61.3779 78.0218 61.5211 78.5352H43.3122C41.6198 78.5352 40.2428 77.1581 40.2428 75.4656ZM65.6879 78.5352H63.0621C62.8681 78.0294 62.7686 77.4972 62.7686 76.9467C62.7686 74.4869 64.7697 72.4858 67.2294 72.4858C67.7583 72.4858 68.2702 72.5771 68.7575 72.7554V75.4655C68.7575 77.1581 67.3805 78.5352 65.6879 78.5352ZM70.1846 76.0405C70.2085 75.8521 70.2223 75.2289 70.2223 75.2289C71.2444 74.6883 72.0492 73.8729 72.6186 72.7991C72.8024 72.4525 72.9474 72.1042 73.0625 71.772C73.2692 71.8844 73.5009 71.951 73.7439 71.9638C73.7443 71.9638 73.7447 71.9638 73.7451 71.9638C73.6251 72.316 73.4742 72.6852 73.284 73.054C72.5707 74.4376 71.5303 75.4368 70.1846 76.0405Z" fill="black"/>
<path d="M36.7696 99V91.524L35.3416 91.908V91.32L37.0336 90.6H37.6216V99H36.7696ZM42.1234 99L44.1394 95.976L42.1234 92.952H43.0234L44.7274 95.532L46.4194 92.952H47.3194L45.3034 95.976L47.3194 99H46.4194L44.7274 96.408L43.0354 99H42.1234ZM52.6468 99L55.9708 91.32H51.2188V90.6H56.8348V91.248L53.5468 99H52.6468ZM65.1331 99L62.1691 95.688L64.8811 92.952H65.9251L62.9131 95.964L62.9251 95.4L66.2131 99H65.1331ZM61.4731 99V90.36H62.3131V99H61.4731ZM69.6373 101.784C69.1013 101.784 68.6253 101.712 68.2093 101.568C67.8013 101.424 67.4773 101.208 67.2373 100.92C67.0053 100.632 66.8893 100.276 66.8893 99.852C66.8893 99.684 66.9173 99.5 66.9733 99.3C67.0373 99.108 67.1573 98.912 67.3333 98.712C67.5093 98.512 67.7573 98.332 68.0773 98.172L68.7613 98.472C68.3373 98.672 68.0613 98.888 67.9333 99.12C67.8053 99.36 67.7413 99.576 67.7413 99.768C67.7413 100.056 67.8213 100.296 67.9813 100.488C68.1493 100.68 68.3733 100.824 68.6533 100.92C68.9413 101.016 69.2693 101.064 69.6373 101.064C70.0053 101.064 70.3213 101.012 70.5853 100.908C70.8573 100.804 71.0653 100.652 71.2093 100.452C71.3533 100.26 71.4253 100.036 71.4253 99.78C71.4253 99.484 71.3093 99.232 71.0773 99.024C70.8533 98.824 70.4333 98.708 69.8173 98.676C69.3293 98.644 68.9253 98.604 68.6053 98.556C68.2933 98.5 68.0333 98.436 67.8253 98.364C67.6253 98.284 67.4573 98.2 67.3213 98.112C67.1933 98.024 67.0693 97.928 66.9493 97.824V97.548L68.1013 96.456L68.8693 96.732L67.7413 97.74L67.8133 97.416C67.9093 97.48 67.9973 97.54 68.0773 97.596C68.1573 97.652 68.2653 97.7 68.4013 97.74C68.5453 97.772 68.7413 97.808 68.9893 97.848C69.2453 97.88 69.5893 97.912 70.0213 97.944C70.5733 97.984 71.0133 98.08 71.3413 98.232C71.6693 98.384 71.9093 98.588 72.0613 98.844C72.2133 99.1 72.2893 99.4 72.2893 99.744C72.2893 100.088 72.1933 100.412 72.0013 100.716C71.8173 101.028 71.5293 101.284 71.1373 101.484C70.7533 101.684 70.2533 101.784 69.6373 101.784ZM69.6253 97.08C69.1133 97.08 68.6813 96.984 68.3293 96.792C67.9853 96.6 67.7213 96.344 67.5373 96.024C67.3533 95.696 67.2613 95.336 67.2613 94.944C67.2613 94.544 67.3533 94.184 67.5373 93.864C67.7213 93.544 67.9893 93.288 68.3413 93.096C68.6933 92.904 69.1213 92.808 69.6253 92.808C70.1373 92.808 70.5653 92.904 70.9093 93.096C71.2613 93.288 71.5253 93.544 71.7013 93.864C71.8853 94.184 71.9773 94.544 71.9773 94.944C71.9773 95.336 71.8853 95.696 71.7013 96.024C71.5253 96.344 71.2613 96.6 70.9093 96.792C70.5653 96.984 70.1373 97.08 69.6253 97.08ZM69.6253 96.36C70.0893 96.36 70.4533 96.24 70.7173 96C70.9893 95.752 71.1253 95.4 71.1253 94.944C71.1253 94.48 70.9893 94.128 70.7173 93.888C70.4533 93.648 70.0893 93.528 69.6253 93.528C69.1613 93.528 68.7893 93.648 68.5093 93.888C68.2373 94.128 68.1013 94.48 68.1013 94.944C68.1013 95.4 68.2373 95.752 68.5093 96C68.7813 96.24 69.1533 96.36 69.6253 96.36ZM70.6093 93.708L70.3093 92.952H72.7573V93.636L70.6093 93.708Z" fill="black"/>
</svg>
