<svg width="108" height="109" viewBox="0 0 108 109" fill="none" xmlns="http://www.w3.org/2000/svg">
<path d="M75.7968 69.4601L74.7813 58H34.8857L33.8702 69.4601C33.4431 74.0319 36.7962 78 41.0878 78H68.5795C72.8708 78 76.2239 74.0319 75.7968 69.4601Z" fill="#2D2D2D"/>
<path d="M71.1062 46C69.9549 46 38.0107 46 37.5608 46C35.5024 46 33.8335 47.7756 33.8335 49.9655V61.069C33.8335 65.4488 37.1713 69 41.288 69H67.379C71.4957 69 74.8335 65.4488 74.8335 61.069C74.8335 59.8627 74.8335 51.8282 74.8335 49.9655C74.8335 47.7756 73.1646 46 71.1062 46Z" fill="#0647B4"/>
<path d="M71.8335 44.5V46H63.8335V44.5C63.8335 43.6712 64.7284 43 65.8335 43H69.8335C70.9358 43 71.8335 43.6697 71.8335 44.5Z" fill="#E9F1FF"/>
<path d="M68.5945 40.3253L69.8335 42.9463L69.8221 43C69.6832 42.9642 69.538 42.9463 69.3884 42.9463H65.6247L65.2277 42.1052C63.1669 37.7424 58.9481 34.9821 54.3335 34.9821C49.7204 34.9821 45.5031 37.7396 43.4396 42.1052L43.0423 42.9463H39.2786C39.129 42.9463 38.9842 42.9642 38.8449 43L38.8335 42.9463L40.0729 40.3253C42.7913 34.5738 48.256 31 54.3335 31C60.411 31 65.8761 34.5738 68.5945 40.3253Z" fill="#2D2D2D"/>
<path d="M50.4468 54.8797L54.4081 50.8522L58.3695 54.8797L54.4081 58.9072L50.4468 54.8797Z" fill="#E9F1FF"/>
<path d="M57.2097 69.3077C57.2097 70.8806 55.9558 72.1554 54.4088 72.1554C52.8617 72.1554 51.6079 70.8806 51.6079 69.3077C51.6079 68.469 51.6079 65.8379 51.6079 64.5616H57.2097V69.3077Z" fill="#E9F1FF"/>
<path d="M45.072 44.4383V46.3367H37.603V44.4383C37.603 43.5402 38.2157 42.7886 39.0399 42.591C39.4017 42.5017 39.3346 42.5562 43.2048 42.5398C44.2365 42.5398 45.072 43.3893 45.072 44.4383Z" fill="#E9F1FF"/>
<path d="M70.8335 54C70.8335 54.552 71.0575 55 71.3335 55C71.6095 55 71.8335 54.552 71.8335 54C71.8335 53.448 71.6095 53 71.3335 53C71.0575 53 70.8335 53.448 70.8335 54Z" fill="#211F1F"/>
<path d="M70.6855 57.0104C70.189 57.0803 69.8335 57.5186 69.8335 58.0089V61.1087C69.8335 62.7206 68.498 64.0336 66.8526 64.0435C66.3425 64.0466 65.8956 64.4149 65.8398 64.9106C65.7734 65.5006 66.2437 66 66.8335 66C69.5905 66 71.8335 63.8058 71.8335 61.1087V57.9783C71.8335 57.3903 71.3034 56.9237 70.6855 57.0104Z" fill="#211F1F"/>
<path d="M70.371 41.7322L69.2814 39.4933C66.4315 33.6378 60.704 30 54.3332 30C47.9629 30 42.2354 33.6378 39.3854 39.4933L38.2951 41.7334C37.2994 42.1861 36.6384 43.1996 36.6384 44.3555V45.409C34.5157 45.8534 32.9132 47.7866 32.9132 50.0977V58.2829L31.8749 69.5299C31.6396 71.9464 32.4144 74.3651 34.0002 76.1663C35.5863 77.9671 37.8513 79 40.2149 79H68.452C70.8152 79 73.0805 77.9671 74.6663 76.1663C76.2524 74.3655 77.0269 71.9464 76.7923 69.5347L75.7533 58.2829V50.0977C75.7533 47.7869 74.1511 45.8534 72.028 45.409V44.3555C72.028 43.1973 71.3652 42.1827 70.371 41.7322ZM45.9515 45.3125V44.3555C45.9515 43.271 45.3632 42.3251 44.4974 41.8369C46.4299 38.0716 50.1751 35.7422 54.3332 35.7422C58.4674 35.7422 62.2479 38.0948 64.1694 41.8369C63.3036 42.3251 62.715 43.271 62.715 44.3555V45.3125H45.9515ZM38.501 44.3555C38.501 43.8198 38.923 43.3984 39.4323 43.3984H43.1576C43.672 43.3984 44.0889 43.8269 44.0889 44.3555V45.3125H38.501V44.3555ZM64.5776 44.2934C64.5776 43.7655 64.9971 43.3629 65.5096 43.3988C65.5107 43.3988 65.5118 43.3984 65.5129 43.3984H69.2341C69.7467 43.3984 70.1654 43.8201 70.1654 44.3555V45.3125H64.5776V44.2934ZM54.3565 31.9141C60.0171 31.9141 65.1066 35.1463 67.6385 40.3498L68.1908 41.4844H66.1081L65.9724 41.2047C63.8162 36.7717 59.3688 33.8281 54.3565 33.8281C49.4406 33.8281 44.9423 36.6813 42.7407 41.2051L42.605 41.4844H40.5223L41.0749 40.3498C43.6069 35.1463 48.6963 31.9141 54.3565 31.9141ZM73.3086 74.8821C72.0753 76.2826 70.3135 77.0859 68.4753 77.0859H40.2381C38.3999 77.0859 36.6381 76.2826 35.4048 74.8821C34.1712 73.4814 33.5684 71.5998 33.7521 69.7153L34.1603 65.2931C35.6336 67.7717 38.2911 69.4297 41.3182 69.4297H50.6313C50.6313 71.5404 52.3026 73.2578 54.3565 73.2578C56.4109 73.2578 58.0817 71.5404 58.0817 69.4297H67.3948C70.4223 69.4297 73.0794 67.7717 74.5531 65.2931L74.9617 69.7202C75.1446 71.5998 74.5422 73.4814 73.3086 74.8821ZM56.1959 69.4297C56.1959 70.5441 55.2642 71.4391 54.1593 71.3355C53.1942 71.2451 52.4706 70.3815 52.4706 69.3852V65.6016H56.1959V69.4297ZM73.8907 49.8352V61.4288C73.8907 64.7903 71.239 67.5156 67.9678 67.5156H58.0585V64.6445C58.0585 64.1159 57.6416 63.6875 57.1272 63.6875H51.5393C51.0249 63.6875 50.608 64.1159 50.608 64.6445V67.5156H40.6991C37.4279 67.5156 34.7758 64.7903 34.7758 61.4288V49.8352C34.7758 48.3944 35.9123 47.2266 37.3144 47.2266H71.3521C72.7542 47.2266 73.8907 48.3944 73.8907 49.8352Z" fill="#211F1F"/>
<path d="M54.9406 50.2515C54.6054 49.9162 54.0619 49.9162 53.7266 50.2515L50.0849 53.8932C49.7497 54.2284 49.7497 54.7716 50.0849 55.1068L53.7266 58.7489C53.8943 58.9162 54.1139 59 54.3335 59C54.5531 59 54.773 58.9162 54.9403 58.7489L58.5823 55.1068C58.9172 54.7719 58.9172 54.2284 58.5823 53.8932L54.9406 50.2515ZM54.3335 56.928L51.9058 54.5L54.3335 52.072L56.7615 54.5L54.3335 56.928Z" fill="#211F1F"/>
</svg>
